<svg xmlns="http://www.w3.org/2000/svg" width="24" height="24" viewBox="0 0 24 24">
    <path d="M 12.248,18.687 H 8.5 a 0.5,0.5 0 0 1 0,-1 h 3.744 a 0.5,0.5 0 1 1 0,1 z M 16,18.187 a 0.75,0.75 0 0 1 -0.75,0.75 0.75,0.75 0 0 1 -0.75,-0.75 0.75,0.75 0 0 1 0.75,-0.75 0.75,0.75 0 0 1 0.75,0.75 z M 9.5,14.848 a 0.75,0.75 0 0 1 -0.75,0.75 0.75,0.75 0 0 1 -0.75,-0.75 0.75,0.75 0 0 1 0.75,-0.75 0.75,0.75 0 0 1 0.75,0.75 z m 6.5,0 a 0.75,0.75 0 0 1 -0.75,0.75 0.75,0.75 0 0 1 -0.75,-0.75 0.75,0.75 0 0 1 0.75,-0.75 0.75,0.75 0 0 1 0.75,0.75 z m -3.25,0 a 0.75,0.75 0 0 1 -0.75,0.75 0.75,0.75 0 0 1 -0.75,-0.75 0.75,0.75 0 0 1 0.75,-0.75 0.75,0.75 0 0 1 0.75,0.75 z M 9.5,11.508 a 0.75,0.75 0 0 1 -0.75,0.75 0.75,0.75 0 0 1 -0.75,-0.75 0.75,0.75 0 0 1 0.75,-0.75 0.75,0.75 0 0 1 0.75,0.75 z m 6.5,0 a 0.75,0.75 0 0 1 -0.75,0.75 0.75,0.75 0 0 1 -0.75,-0.75 0.75,0.75 0 0 1 0.75,-0.75 0.75,0.75 0 0 1 0.75,0.75 z m -3.25,0 a 0.75,0.75 0 0 1 -0.75,0.75 0.75,0.75 0 0 1 -0.75,-0.75 0.75,0.75 0 0 1 0.75,-0.75 0.75,0.75 0 0 1 0.75,0.75 z M 14.5,9.757 h -5 A 1.5,1.5 0 0 1 8,8.257 V 6.563 a 1.5,1.5 0 0 1 1.5,-1.5 h 5 a 1.5,1.5 0 0 1 1.5,1.5 v 1.694 a 1.5,1.5 0 0 1 -1.5,1.5 z M 9.5,6.063 A 0.5,0.5 0 0 0 9,6.563 v 1.694 a 0.5,0.5 0 0 0 0.5,0.5 h 5 A 0.5,0.5 0 0 0 15,8.257 V 6.563 a 0.5,0.5 0 0 0 -0.5,-0.5 z m 7,15.874 h -9 A 2.5,2.5 0 0 1 5,19.437 V 4.563 a 2.5,2.5 0 0 1 2.5,-2.5 h 9 a 2.5,2.5 0 0 1 2.5,2.5 v 14.874 a 2.5,2.5 0 0 1 -2.5,2.5 z M 7.5,3.063 A 1.5,1.5 0 0 0 6,4.563 v 14.874 a 1.5,1.5 0 0 0 1.5,1.5 h 9 a 1.5,1.5 0 0 0 1.5,-1.5 V 4.563 a 1.5,1.5 0 0 0 -1.5,-1.5 z"/>
</svg>