<svg xmlns="http://www.w3.org/2000/svg" width="24" height="24" viewBox="0 0 24 24">
    <path d="m 17.435656,12.071996 -1.27192,-1.27192 -5.855629,5.855629 -2.5438387,-2.543838 -1.2719194,1.271919 3.8157581,3.815758 z M 20.399468,2.400608 H 19.199544 V 7.6e-4 H 16.799696 V 2.400608 H 7.2003041 V 7.6e-4 H 4.800456 V 2.400608 H 3.600532 c -1.3319156,0 -2.3878487,1.0799316 -2.3878487,2.399848 L 1.200684,21.599392 c 0,1.319917 1.0679324,2.399848 2.399848,2.399848 h 16.798936 c 1.319916,0 2.399848,-1.079931 2.399848,-2.399848 V 4.800456 c 0,-1.3199164 -1.079932,-2.399848 -2.399848,-2.399848 z m 0,19.198784 H 3.600532 V 8.400228 h 16.798936 z"/>
</svg>
