<svg xmlns="http://www.w3.org/2000/svg" width="16" height="16" viewBox="0 0 16 16">
    <path d="M 15.115298,6.709953 13.584271,5.179482 c -0.08867,-0.08923 -0.233744,-0.08923 -0.322419,0 l -4.1894065,4.188851 0.0083,0.0083 -0.01336,-0.0037 -0.573416,2.13969 0.0017,3.71e-4 c -0.02597,0.07884 -0.0098,0.168445 0.05306,0.231704 0.06975,0.07031 0.17234,0.08367 0.256562,0.04397 l 3.71e-4,0.0017 2.1176145,-0.56748 -0.0013,-0.005 0.0035,0.0035 4.189593,-4.189407 c 0.08886,-0.08849 0.08886,-0.233745 1.85e-4,-0.322048 z m -5.9241255,4.387719 0.340599,-1.270012 0.9297835,0.929784 z"/>
    <path d="m 12.146742,12.309619 v 0 h -1.388368 v 0 c 0,0 -1.86e-4,0 -1.86e-4,0 -0.126148,5.56e-4 -0.227251,0.10166 -0.227808,0.227993 l 3.71e-4,0.0022 v 1.616733 H 2.8053085 V 2.7704295 h 0.927001 V 3.339764 c -3.71e-4,0.0061 -0.0019,0.01169 -0.0019,0.01799 0,0.185141 0.150265,0.336518 0.336518,0.336518 9.28e-4,0 0.0017,-1.86e-4 0.0026,-1.86e-4 v 0.0015 h 5.199333 c 0.186439,-3.71e-4 0.336332,-0.151378 0.336332,-0.336333 0,-0.0028 -7.42e-4,-0.0054 -7.42e-4,-0.0082 V 2.7704295 H 10.530524 V 4.387719 l -3.71e-4,0.0022 c 3.71e-4,0.126519 0.101289,0.227623 0.227808,0.227994 h 1.388368 1.86e-4 c 0.126148,-5.57e-4 0.227251,-0.101475 0.227808,-0.227808 v 0 -2.4635936 h -0.0035 c 1.86e-4,-0.00909 0.0028,-0.017624 0.0028,-0.026899 0,-0.536685 -0.43521,-0.9730081 -0.972266,-0.9730081 -0.0074,0 -0.0141,0.00204 -0.02152,0.00223 H 8.6793455 v -0.6311103 0 -3.71e-4 c 0,-0.1634357 -0.132455,-0.2955199 -0.29552,-0.2958909 V 0 h -3.422688 v 0.00111 c -0.0028,0 -0.0052,-7.421e-4 -0.008,-7.421e-4 -0.16325,0 -0.295705,0.1322698 -0.295705,0.2957054 0,0.00186 5.56e-4,0.00371 5.56e-4,0.00557 v 0.627029 h -2.720341 c -0.0013,0 -0.0024,-3.71e-4 -0.0037,-3.71e-4 -0.536685,0 -0.97245203,0.4366942 -0.97245203,0.972637 0,0.00872 0.0024,0.016696 0.0026,0.025415 h -0.00259 V 15.018273 h 5.57e-4 c 0,0.0017 -5.57e-4,0.0033 -5.57e-4,0.005 0,0.537056 0.43595203,0.971709 0.97263703,0.971709 0.01447,0 0.02801,-0.0037 0.04248,-0.0043 v 0.0039 h 9.3683325 c 0.01818,9.28e-4 0.03543,0.0054 0.0538,0.0054 0.53687,0 0.971895,-0.435581 0.971895,-0.971709 0,-0.0035 -9.28e-4,-0.0067 -9.28e-4,-0.0102 h 0.0052 v -2.48066 0 0 c -7.42e-4,-0.126519 -0.10166,-0.227437 -0.228179,-0.227808 z"/>
</svg>
