<svg width="18" height="18" xmlns="http://www.w3.org/2000/svg">
    <path fill="#000"
          d="m16,5.875l-14,0l0,9c0,0.5 0.5,1 1,1l12,0c0.5,0 1,-0.5 1,-1l0,-9zm-1,-2l-2,-2l-8,0l-2,2l12,0zm-15,11l0,-10c0,-0.7 0.5,-1.5 1,-2l2,-2c0.5,-0.5 1.3,-1 2,-1l8,0c0.8,0 1.5,0.4 2,1l2,2c0.4,0.5 1,1.3 1,2l0,10c0,1.5 -1.5,3 -3,3l-12,0c-1.5,0 -3,-1.5 -3,-3z"/>
    <path fill="#000"
          d="m13.5,8.125l-9,0a0.5,0.5 0 0 0 0,1l9,0a0.5,0.5 0 0 0 0,-1zm0,5l-9,0a0.5,0.5 0 0 0 0,1l9,0a0.5,0.5 0 0 0 0,-1zm0,-2.5l-9,0a0.5,0.5 0 0 0 0,1l9,0a0.5,0.5 0 0 0 0,-1z"/>
</svg>