<svg xmlns="http://www.w3.org/2000/svg" width="24" height="24" viewBox="0 0 24 24">
    <path d="M 17.997715,10.998603 H 5.9992381 a 0.66658223,0.66658223 0 0 0 0,1.333164 H 17.997715 a 0.66658223,0.66658223 0 0 0 0,-1.333164 z m 0,6.66582 H 5.9992381 a 0.6665825,0.6665825 0 0 0 0,1.333165 H 17.997715 a 0.6665825,0.6665825 0 0 0 0,-1.333165 z m 0,-3.332909 H 5.9992381 a 0.66658202,0.66658202 0 0 0 0,1.333163 H 17.997715 a 0.66658202,0.66658202 0 0 0 0,-1.333163 z M 21.330624,7.9989842 H 2.6663281 V 19.997461 c 0,0.666582 0.666582,1.333163 1.3331641,1.333163 H 19.997461 c 0.666582,0 1.333163,-0.666581 1.333163,-1.333163 z M 19.997461,5.3326561 17.331133,2.6663281 H 6.6658202 l -2.666328,2.666328 z M 0,19.997461 V 6.6658202 C 0,5.7326054 0.66658202,4.6660742 1.3331641,3.9994922 L 3.9994922,1.3331641 C 4.6660742,0.66658202 5.7326054,0 6.6658202,0 H 17.331133 c 1.066531,0 1.999746,0.53326561 2.666328,1.3331641 l 2.666328,2.6663281 c 0.533265,0.666582 1.333164,1.7331132 1.333164,2.666328 V 19.997461 c 0,1.999746 -1.999746,3.999492 -3.999492,3.999492 H 3.9994922 C 1.9997461,23.996953 0,21.997207 0,19.997461 Z"/>
</svg>