<svg xmlns="http://www.w3.org/2000/svg" width="24" height="24" viewBox="0 0 24 24">
    <path d="m 3.9306024,18.867428 c 0.9212278,0.24387 1.9115511,0.12196 2.7348836,-0.354171 l 2.7867423,-1.619853 -0.0058,-10.2302695 c 0,-1.1554285 0.01151,-1.8521531 0,-3.0017531 0,-1.2715249 0.541225,-2.0901796 0.9269877,-2.4733764 C 8.8649633,2.0647153 6.711575,3.3130189 5.208808,4.189734 L 2.8769436,5.5425305 C 2.3702694,5.8793145 1.9499608,6.337959 1.6620744,6.8721305 1.3799475,7.394694 1.2244897,7.9926855 1.2244897,8.625551 v 6.688604 c 0,0.673469 0.1784885,1.306335 0.4951592,1.846286 0.483649,0.847689 1.2782106,1.463167 2.2109535,1.706987 z M 20.39182,13.427167 18.215412,12.161437 9.4176973,17.2824 6.705796,18.861649 C 5.8306385,19.372555 4.6906187,19.378384 4.1896995,19.244816 L 11.530726,23.51809 C 12.08924,23.837437 12.705306,24 13.350171,24 c 0.644865,0 1.272441,-0.168392 1.836686,-0.487689 1.900065,-1.085731 3.794351,-2.200507 5.688636,-3.303674 0.558466,-0.330955 1.024849,-0.801208 1.347282,-1.364424 0.310923,-0.539951 0.489405,-1.166988 0.489405,-1.82307 0,-0.696735 -0.143952,-1.3296 -0.489405,-1.939249 -0.483624,-0.859298 -1.013338,-1.184424 -1.830955,-1.654727 z m 0.771526,0.05226 c 0.719707,0.423822 1.404882,1.201863 1.612164,1.991463 V 9.5196735 6.9998695 C 22.77551,6.3089635 22.591249,5.66449 22.268816,5.107102 21.934873,4.5322924 21.456979,4.0503871 20.881225,3.7194418 19.033028,2.6453242 17.179053,1.5595887 15.319297,0.49127525 14.50173,0.02098526 13.528653,-0.11836001 12.613175,0.10227002 12.129551,0.21839133 11.812897,0.39837909 11.398334,0.63642625 10.217975,1.4376638 9.7688813,2.5756508 9.7688813,3.9691054 v 2.8798091 l 5.3949557,3.1352815 3.402808,1.979853 c 0.990318,0.574775 1.617894,0.940555 2.596701,1.515378 z"
          fill="#1a1a1a"/>
</svg>
