<svg xmlns="http://www.w3.org/2000/svg" height="140.375" width="526.77502" viewBox="0 0 526.77502 140.375">
    <path d="M 290.18375,37.909125 H 270.4675 c -1.88125,0 -3.64875,0.934625 -4.715,2.498625 L 238.55875,80.463875 227.0325,41.97125 c -0.725,-2.40875 -2.9475,-4.062125 -5.46375,-4.062125 h -19.375 c -2.355,0 -3.99,2.300375 -3.24125,4.517125 l 21.7175,63.73288 -20.4175,28.82329 c -1.60625,2.27002 0.0112,5.39258 2.78625,5.39258 h 19.6925 c 1.86875,0 3.61875,-0.91113 4.67875,-2.44483 L 292.9875,43.2715 c 1.57,-2.265125 -0.0412,-5.362375 -2.80375,-5.362375 m -104.49625,0 h -19.62 c -1.67125,0 -3.115,1.22225 -3.37375,2.881875 l -0.8675,5.48775 -1.3725,-1.98925 c -4.2475,-6.165 -13.72,-8.2255 -23.17375,-8.2255 -21.68137,0 -40.199875,16.421375 -43.806375,39.457 -1.875,11.49075 0.791,22.4785 7.309125,30.14063 5.979,7.04537 14.53413,9.981 24.7135,9.981 17.47,0 27.1575,-11.2325 27.1575,-11.2325 l -0.875,5.45175 c -0.33,2.08487 1.27625,3.954 3.3675,3.954 h 17.6725 c 2.81,0 5.1825,-2.03713 5.62625,-4.8105 l 10.60375,-67.154255 c 0.33625,-2.067 -1.26375,-3.942 -3.36125,-3.942 z M 158.33875,76.09625 c -1.8925,11.208875 -10.79,18.734375 -22.13625,18.734375 -5.6975,0 -10.25125,-1.82775 -13.17512,-5.290625 -2.8995,-3.438875 -4.002,-8.3335 -3.07913,-13.785625 1.76713,-11.11325 10.81425,-18.88325 21.98675,-18.88325 5.5725,0 10.10125,1.851 13.085,5.34325 2.99,3.52875 4.175,8.453625 3.31875,13.881875 M 63.212875,0.00875 H 22.24025 c -2.80425,0 -5.1885,2.0375 -5.626,4.80625 L 0.04296875,109.87987 c -0.32959,2.07225 1.27636875,3.94188 3.37890625,3.94188 h 19.561 c 2.80375,0 5.188,-2.03663 5.6255,-4.8105 l 4.46925,-28.337375 c 0.431625,-2.7745 2.82175,-4.811625 5.619625,-4.811625 H 51.668 c 26.98975,0 42.566375,-13.0605 46.63475,-38.941875 C 100.13575,25.597125 98.38037,16.700625 93.078125,10.47 87.254875,3.6275 76.92625,0.00875 63.212875,0.00875 Z M 67.94,38.382375 C 65.69925,53.0845 54.465875,53.0845 43.604,53.0845 h -6.182625 l 4.337375,-27.457 c 0.257875,-1.65975 1.695375,-2.881875 3.373125,-2.881875 h 2.8335 c 7.398875,0 14.378875,0 17.98525,4.21725 2.151,2.516625 2.810125,6.254875 1.989375,11.4195"
          fill="#283b82" style="stroke-width:0.125"/>
    <path d="m 501.06375,2.89125 -16.8175,106.98862 c -0.32875,2.07225 1.27625,3.94188 3.3675,3.94188 H 504.52 c 2.81,0 5.195,-2.03663 5.62625,-4.8105 L 526.72875,3.9525 c 0.33,-2.07375 -1.275,-3.94875 -3.36625,-3.94875 H 504.43 c -1.67125,0.005 -3.10875,1.22875 -3.36625,2.8875 M 477.9325,37.909125 h -19.60875 c -1.68375,0 -3.11625,1.22225 -3.3675,2.881875 L 454.0875,46.27875 452.71,44.2895 c -4.2475,-6.165 -13.71375,-8.2255 -23.1675,-8.2255 -21.6825,0 -40.19375,16.421375 -43.80125,39.457 -1.86875,11.49075 0.785,22.4785 7.30375,30.14063 5.99125,7.04537 14.53375,9.981 24.7125,9.981 17.47,0 27.1575,-11.2325 27.1575,-11.2325 l -0.875,5.45175 c -0.32875,2.08487 1.27625,3.954 3.38,3.954 h 17.6675 c 2.7975,0 5.1825,-2.03713 5.62,-4.8105 l 10.61,-67.154255 c 0.3225,-2.067 -1.2825,-3.942 -3.385,-3.942 z m -27.35,38.187125 c -1.88125,11.208875 -10.79,18.734375 -22.13625,18.734375 -5.68625,0 -10.25125,-1.82775 -13.175,-5.290625 -2.89875,-3.438875 -3.99,-8.3335 -3.07875,-13.785625 1.77875,-11.11325 10.81375,-18.88325 21.9875,-18.88325 5.57125,0 10.1,1.851 13.08375,5.34325 3.00125,3.52875 4.1875,8.453625 3.31875,13.881875 m -95.12,-76.0875 h -40.97875 c -2.7975,0 -5.1825,2.0375 -5.62,4.80625 L 292.2925,109.87987 c -0.32875,2.07225 1.27625,3.94188 3.3675,3.94188 h 21.02875 c 1.9525,0 3.625,-1.42525 3.93,-3.36663 l 4.7025,-29.781245 c 0.43125,-2.7745 2.8225,-4.811625 5.62,-4.811625 h 12.965 c 26.995,0 42.56625,-13.0605 46.64,-38.941875 1.84,-11.32325 0.0725,-20.21975 -5.23,-26.450375 -5.8175,-6.8425 -16.14,-10.46125 -29.85375,-10.46125 z M 360.19,38.382375 C 357.955,53.0845 346.7225,53.0845 335.85375,53.0845 h -6.17625 l 4.34375,-27.457 c 0.2575,-1.65975 1.6825,-2.881875 3.36625,-2.881875 h 2.83375 c 7.39375,0 14.37875,0 17.985,4.21725 2.15125,2.516625 2.80375,6.254875 1.98375,11.4195"
          fill="#469bdb" style="stroke-width:0.125"/>
</svg>