<svg xmlns="http://www.w3.org/2000/svg" width="68" height="56" viewBox="5 4 68 56">
    <path d="m 25.91074,5.95291 c 0.42645,5.38525 0.53172,10.78991 -2.46322,14.62117 -4.41017,5.55354 -16.72809,10.29041 -16.66061,10.12704 0,0 11.43376,4.24683 15.51724,9.31035 4.08349,5.06352 8.16696,17.80399 8.16696,17.80399 0,0 3.17736,-10.35947 12.02941,-13.60571 8.11384,-2.97553 27.77228,0.82982 27.77228,0.82982 0,0 -8.93054,-6.17148 -11.87065,-12.86839 -2.94011,-6.69692 -1.30671,-22.3775 -1.30671,-22.3775 0,0 -8.65699,3.92015 -15.19057,4.41016 C 35.3713,14.69386 25.91074,5.95291 25.91074,5.95291 Z"
          style="fill:#ffffff;fill-opacity:1;stroke:#000000;stroke-width:4px;stroke-linecap:butt;stroke-linejoin:miter;stroke-miterlimit:5;stroke-dasharray:none;stroke-opacity:1;marker-start:none;marker-mid:none;marker-end:none"/>
    <path d="m 30.47112,56.83542 2.77775,-13.8908 4.24584,-14.53025 M 68.50231,44.18746 60.28982,40.24398 37.49471,29.06773 M 56.9321,10.12036 48.1068,20.74338 37.39079,28.8579 M 25.89761,5.7102 37.16803,28.90439 M 7.8509,30.60403 37.82139,29.06773"
          style="fill:none;stroke:#000000;stroke-width:3px;stroke-linecap:butt;stroke-linejoin:miter;stroke-opacity:1"/>
</svg>