<svg xmlns="http://www.w3.org/2000/svg" width="24" height="24" viewBox="0 0 24 24">
    <path d="M 12,5.1578947 V 7.2631579 H 4.6315792 V 20.126316 H 17.263158 v -7.6 h 2.105263 v 7.368421 C 19.368421,21.052632 18.421053,22 17.263158,22 H 4.6315792 C 3.4736844,22 2.526316,21.052632 2.526316,19.894737 V 7.2631579 c 0,-1.1578947 0.9473684,-2.1052632 2.1052632,-2.1052632 z M 12,15.68421 v 2.105264 H 6.7368423 V 15.68421 Z m 3.157895,-3.157894 v 2.105263 H 6.7368423 v -2.105263 z m 0,-3.157895 v 2.105263 H 6.7368423 V 9.368421 Z M 18.31579,4.1052632 19.302632,6.2763158 21.473684,7.2631579 19.302632,8.25 18.31579,10.421053 17.328948,8.25 15.157895,7.2631579 17.328948,6.2763158 Z M 15.157895,2 15.81579,3.4473684 17.263158,4.1052632 15.81579,4.7631579 15.157895,6.2105263 14.5,4.7631579 13.052632,4.1052632 14.5,3.4473684 Z"
          fill="#4285f4"/>
</svg>
