<!-- Created with Inkscape (http://www.inkscape.org/) -->

<svg width="16" height="16" viewBox="0 0 16 16"
     xmlns="http://www.w3.org/2000/svg" xmlns:xlink="http://www.w3.org/1999/xlink">
    <defs>
        <linearGradient id="Background">
            <stop style="stop-color:#e6e6e6;stop-opacity:1;" offset="0"/>
            <stop style="stop-color:#ffffff;stop-opacity:1;" offset="1"/>
        </linearGradient>
        <linearGradient id="Dark">
            <stop style="stop-color:#0f5577;stop-opacity:1;" offset="0.50188726"/>
            <stop style="stop-color:#00003f;stop-opacity:1;" offset="1"/>
        </linearGradient>
        <linearGradient id="Light">
            <stop style="stop-color:#2c67a1;stop-opacity:1;" offset="0.50188726"/>
            <stop style="stop-color:#0f5577;stop-opacity:1;" offset="1"/>
        </linearGradient>
        <linearGradient id="Backgrounder" xlink:href="#Background"
                        x1="15.00944" y1="46.252426" x2="32.990562" y2="1.7475915"
                        gradientUnits="userSpaceOnUse"
                        gradientTransform="matrix(1.0208334,0,0,1.0208334,-0.50000051,-0.50000174)"/>
        <linearGradient id="Darker" xlink:href="#Dark"
                        x1="55.318546" y1="-5.5910144" x2="77.679634" y2="-24.354197"
                        gradientUnits="userSpaceOnUse"
                        gradientTransform="translate(-46.363405,1.6276333)"/>
        <linearGradient id="Lighter" xlink:href="#Light"
                        x1="56.383564" y1="33.223492" x2="72.706581" y2="9.0236216"
                        gradientUnits="userSpaceOnUse"
                        gradientTransform="translate(-44.409405,-34.468526)"/>
    </defs>
    <circle id="Background Circle" cy="8" cx="8" r="8"
            style="fill:url(#Backgrounder);fill-opacity:1;stroke:none;stroke-width:0.380952;stroke-linecap:square;stroke-opacity:0"/>
    <g id="Symbols" transform="matrix(0.39151931,0,0,0.39151931,0.1164946,14.453014)">
        <path id="Dark Symbol"
              d="m 20.257311,2.4411123 c 0.07615,0.0022 0.164732,-0.05206 0.19659,-0.121606 L 34.702187,-28.79453 c 0.03188,-0.06954 0.03805,-0.165119 0.01396,-0.21252 -0.02413,-0.0474 -0.106455,-0.08625 -0.182996,-0.08625 l -19.70158,0.0026 c -0.212133,8.44e-4 -0.250209,0.02526 -0.279348,0.0711 -0.03108,0.04895 0.0074,0.175226 0.03924,0.24477 l 2.035079,4.420996 c 0.03186,0.06916 0.11267,0.154245 0.179498,0.188822 0.06683,0.03458 0.18416,0.06255 0.260309,0.06294 l 9.494323,0.0047 c 0.07654,2.91e-4 0.156185,0.03419 0.176775,0.07498 0.02136,0.04118 0.01244,0.131709 -0.01903,0.201253 L 20.29422,-9.7620923 c -0.03147,0.06955 -0.07965,0.129378 -0.106454,0.133265 -0.02643,0.0035 -0.0746,-0.05012 -0.106454,-0.119666 L 11.315863,-28.878546 c -0.03147,-0.06954 -0.106454,-0.154242 -0.166286,-0.188822 -0.05944,-0.03419 -0.170951,-0.06255 -0.2471,-0.06255 l -5.1751187,-0.0012 c -0.07615,0 -0.155411,0.03458 -0.176001,0.07732 -0.0206,0.04235 -0.01087,0.134428 0.02098,0.203587 L 19.861803,2.3038293 c 0.03187,0.06955 0.120831,0.128209 0.19698,0.130934 l 0.198537,0.0062"
              style="fill:url(#Darker);fill-rule:nonzero;stroke:none;stroke-width:0.0388521"/>
        <path id="Light Symbol"
              d="m 20.257311,2.4411132 c 0.07615,0.0022 0.164732,-0.05206 0.19659,-0.121606 L 34.702187,-28.794531 c 0.03188,-0.06954 0.03805,-0.165119 0.01396,-0.21252 -0.02413,-0.0474 -0.106455,-0.08625 -0.182996,-0.08625 l -19.70158,0.0026 c -0.212133,8.44e-4 -0.250209,0.02526 -0.279348,0.0711 -0.03108,0.04895 0.0074,0.175226 0.03924,0.24477 l 2.035079,4.420997 c 0.03186,0.06916 0.11267,0.154245 0.179498,0.188822 0.06683,0.03458 0.18416,0.06255 0.260309,0.06294 l 9.494323,0.0047 c 0.07654,2.91e-4 0.156185,0.03419 0.176775,0.07498 0.02136,0.04118 0.01244,0.131709 -0.01903,0.201253 L 20.29422,-9.7620931 c -0.03147,0.06955 -0.07965,0.129378 -0.106454,0.133265 -0.02643,0.0035 -0.0746,-0.05012 -0.106454,-0.119666 L 11.315863,-28.878547 c -0.03147,-0.06954 -0.106454,-0.154242 -0.166286,-0.188822 -0.05944,-0.03419 -0.170951,-0.06255 -0.2471,-0.06255 l -5.1751187,-0.0012 c -0.07615,0 -0.1554111,0.03458 -0.176001,0.07732 -0.0206,0.04235 -0.01087,0.134428 0.02098,0.203587 L 19.861803,2.3038302 c 0.03187,0.06955 0.120831,0.128209 0.19698,0.130934 l 0.198537,0.0062"
              style="opacity:0.3;fill:url(#Lighter);fill-rule:nonzero;stroke:none;stroke-width:0.0388521"/>
    </g>
    <g id="Green_Glow">
        <path id="Green_Glow_Symbol"
              d="m 8.0476326,15.408757 c 0.02981,8.61e-4 0.06449,-0.02038 0.07697,-0.04761 L 13.703083,3.1794 c 0.01248,-0.027226 0.0149,-0.064647 0.0055,-0.083206 -0.0094,-0.018558 -0.04168,-0.033768 -0.07165,-0.033768 l -7.7135494,0.00102 c -0.08305,3.305e-4 -0.09796,0.00989 -0.10937,0.027837 -0.01217,0.019165 0.0029,0.068604 0.01536,0.095832 l 0.796773,1.7309057 c 0.01247,0.027077 0.04411,0.06039 0.07028,0.073927 0.02617,0.013539 0.0721,0.02449 0.101916,0.024642 l 3.7172114,0.00184 c 0.02997,1.139e-4 0.06115,0.013386 0.06921,0.029356 0.0084,0.016123 0.0049,0.051567 -0.0075,0.078794 L 8.0620826,10.630966 c -0.01232,0.02723 -0.03118,0.05065 -0.04168,0.05218 -0.01035,0.0014 -0.02921,-0.01962 -0.04168,-0.04685 l -3.43184,-7.4897909 c -0.01232,-0.027226 -0.04168,-0.060389 -0.0651,-0.073927 -0.02327,-0.013386 -0.06693,-0.02449 -0.09674,-0.02449 l -2.026167,-4.698e-4 c -0.02981,0 -0.06085,0.013539 -0.06891,0.030272 -0.0081,0.016581 -0.0043,0.052631 0.0082,0.079708 l 5.594602,12.1974087 c 0.01248,0.02723 0.04731,0.0502 0.07712,0.05126 l 0.07773,0.0024"
              style="opacity:1;fill:none;fill-opacity:1;fill-rule:nonzero;stroke:#00ff00;stroke-width:0.5;stroke-opacity:1;stroke-dasharray:none"/>
        <circle id="Green Glow" cx="8" cy="8" r="7.7501221"
                style="opacity:1;fill:none;fill-opacity:1;stroke:#00ff00;stroke-width:0.499756;stroke-linecap:square;stroke-dasharray:none;stroke-opacity:1"/>
    </g>
</svg>
