<!-- Created with Inkscape (http://www.inkscape.org/) -->

<svg width="48" height="48" viewBox="0 0 48 48"
     xmlns="http://www.w3.org/2000/svg" xmlns:xlink="http://www.w3.org/1999/xlink">
    <defs>
        <linearGradient id="Background">
            <stop style="stop-color:#e6e6e6;stop-opacity:1;" offset="0"/>
            <stop style="stop-color:#ffffff;stop-opacity:1;" offset="1"/>
        </linearGradient>
        <linearGradient id="Dark">
            <stop style="stop-color:#0f5577;stop-opacity:1;" offset="0.50188726"/>
            <stop style="stop-color:#00003f;stop-opacity:1;" offset="1"/>
        </linearGradient>
        <linearGradient id="Light">
            <stop style="stop-color:#2c67a1;stop-opacity:1;" offset="0.50188726"/>
            <stop style="stop-color:#0f5577;stop-opacity:1;" offset="1"/>
        </linearGradient>
        <linearGradient id="Backgrounder" xlink:href="#Background"
                        x1="15.00944" y1="46.252426" x2="32.990562" y2="1.7475915"
                        gradientUnits="userSpaceOnUse"
                        gradientTransform="matrix(1.0208334,0,0,1.0208334,-0.50000051,-0.50000174)"/>
        <linearGradient id="Darker" xlink:href="#Dark"
                        x1="55.318546" y1="-5.5910144" x2="77.679634" y2="-24.354197"
                        gradientUnits="userSpaceOnUse"
                        gradientTransform="translate(-46.363405,1.6276333)"/>
        <linearGradient id="Lighter" xlink:href="#Light"
                        x1="56.383564" y1="33.223492" x2="72.706581" y2="9.0236216"
                        gradientUnits="userSpaceOnUse"
                        gradientTransform="translate(-44.409405,-34.468526)"/>
    </defs>
    <circle id="Background Circle" cy="24" cx="24" r="21"
            style="fill:url(#Backgrounder);fill-opacity:1;stroke:none;stroke-width:1;stroke-linecap:square;stroke-opacity:0"/>
    <g id="Symbols" transform="matrix(1.0277382,0,0,1.0277382,3.3057983,40.939163)">
        <path id="Dark Symbol"
              d="m 20.257311,2.4411123 c 0.07615,0.0022 0.164732,-0.05206 0.19659,-0.121606 L 34.702187,-28.79453 c 0.03188,-0.06954 0.03805,-0.165119 0.01396,-0.21252 -0.02413,-0.0474 -0.106455,-0.08625 -0.182996,-0.08625 l -19.70158,0.0026 c -0.212133,8.44e-4 -0.250209,0.02526 -0.279348,0.0711 -0.03108,0.04895 0.0074,0.175226 0.03924,0.24477 l 2.035079,4.420996 c 0.03186,0.06916 0.11267,0.154245 0.179498,0.188822 0.06683,0.03458 0.18416,0.06255 0.260309,0.06294 l 9.494323,0.0047 c 0.07654,2.91e-4 0.156185,0.03419 0.176775,0.07498 0.02136,0.04118 0.01244,0.131709 -0.01903,0.201253 L 20.29422,-9.7620923 c -0.03147,0.06955 -0.07965,0.129378 -0.106454,0.133265 -0.02643,0.0035 -0.0746,-0.05012 -0.106454,-0.119666 L 11.315863,-28.878546 c -0.03147,-0.06954 -0.106454,-0.154242 -0.166286,-0.188822 -0.05944,-0.03419 -0.170951,-0.06255 -0.2471,-0.06255 l -5.1751187,-0.0012 c -0.07615,0 -0.155411,0.03458 -0.176001,0.07732 -0.0206,0.04235 -0.01087,0.134428 0.02098,0.203587 L 19.861803,2.3038293 c 0.03187,0.06955 0.120831,0.128209 0.19698,0.130934 l 0.198537,0.0062"
              style="fill:url(#Darker);fill-rule:nonzero;stroke:none;stroke-width:0.0388521"/>
        <path id="Light Symbol"
              d="m 20.257311,2.4411132 c 0.07615,0.0022 0.164732,-0.05206 0.19659,-0.121606 L 34.702187,-28.794531 c 0.03188,-0.06954 0.03805,-0.165119 0.01396,-0.21252 -0.02413,-0.0474 -0.106455,-0.08625 -0.182996,-0.08625 l -19.70158,0.0026 c -0.212133,8.44e-4 -0.250209,0.02526 -0.279348,0.0711 -0.03108,0.04895 0.0074,0.175226 0.03924,0.24477 l 2.035079,4.420997 c 0.03186,0.06916 0.11267,0.154245 0.179498,0.188822 0.06683,0.03458 0.18416,0.06255 0.260309,0.06294 l 9.494323,0.0047 c 0.07654,2.91e-4 0.156185,0.03419 0.176775,0.07498 0.02136,0.04118 0.01244,0.131709 -0.01903,0.201253 L 20.29422,-9.7620931 c -0.03147,0.06955 -0.07965,0.129378 -0.106454,0.133265 -0.02643,0.0035 -0.0746,-0.05012 -0.106454,-0.119666 L 11.315863,-28.878547 c -0.03147,-0.06954 -0.106454,-0.154242 -0.166286,-0.188822 -0.05944,-0.03419 -0.170951,-0.06255 -0.2471,-0.06255 l -5.1751187,-0.0012 c -0.07615,0 -0.1554111,0.03458 -0.176001,0.07732 -0.0206,0.04235 -0.01087,0.134428 0.02098,0.203587 L 19.861803,2.3038302 c 0.03187,0.06955 0.120831,0.128209 0.19698,0.130934 l 0.198537,0.0062"
              style="opacity:0.3;fill:url(#Lighter);fill-rule:nonzero;stroke:none;stroke-width:0.0388521"/>
    </g>
</svg>
