<svg xmlns="http://www.w3.org/2000/svg" width="24" height="24" viewBox="0 0 24 24">
    <path d="m 16.750151,16.919532 c 0,0.336464 0.272631,0.609096 0.609095,0.609096 h 1.340013 c 0.336465,0 0.609096,-0.272632 0.609096,-0.609096 0,-0.336465 -0.272631,-0.609097 -0.609096,-0.609097 h -1.340013 c -0.336464,0 -0.609095,0.272632 -0.609095,0.609097 z m -4.020036,0 c 0,0.336464 0.272631,0.609096 0.609096,0.609096 h 1.340012 c 0.336465,0 0.609095,-0.272632 0.609095,-0.609096 0,-0.336465 -0.27263,-0.609097 -0.609095,-0.609097 h -1.340012 c -0.336465,0 -0.609096,0.272632 -0.609096,0.609097 z m -4.0200367,0 c 0,0.336464 0.2726316,0.609096 0.6090964,0.609096 h 1.3400123 c 0.336465,0 0.609096,-0.272632 0.609096,-0.609096 0,-0.336465 -0.272631,-0.609097 -0.609096,-0.609097 H 9.3191747 c -0.3364648,0 -0.6090964,0.272632 -0.6090964,0.609097 z m -4.0200362,0 c 0,0.336464 0.2726316,0.609096 0.6090964,0.609096 h 1.340012 c 0.3364649,0 0.6090964,-0.272632 0.6090964,-0.609096 0,-0.336465 -0.2726315,-0.609097 -0.6090964,-0.609097 h -1.340012 c -0.3364648,0 -0.6090964,0.272632 -0.6090964,0.609097 z m 16.0192349,2.070927 h -1.340013 c -0.336464,0 -0.609095,0.272632 -0.609095,0.609097 0,0.336465 0.272631,0.609096 0.609095,0.609096 h 1.340013 c 0.336465,0 0.609097,-0.272631 0.609097,-0.609096 0,-0.336465 -0.272632,-0.609097 -0.609097,-0.609097 z m -4.020036,0 H 7.2888534 c -0.3364649,0 -0.6090964,0.272632 -0.6090964,0.609097 0,0.336465 0.2726315,0.609096 0.6090964,0.609096 h 9.4003876 c 0.336465,0 0.609095,-0.272631 0.609095,-0.609096 0,-0.336465 -0.27263,-0.609097 -0.609095,-0.609097 z M 3.2891204,20.208652 h 1.3400122 c 0.3364648,0 0.6090963,-0.272631 0.6090963,-0.609096 0,-0.336465 -0.2726315,-0.609097 -0.6090963,-0.609097 H 3.2891204 c -0.3364648,0 -0.6090964,0.272632 -0.6090964,0.609097 0,0.336383 0.2726316,0.609096 0.6090964,0.609096 z M 19.369264,14.848604 h 1.340013 c 0.336465,0 0.609097,-0.272632 0.609097,-0.609096 0,-0.336465 -0.272632,-0.609097 -0.609097,-0.609097 h -1.340013 c -0.336464,0 -0.609095,0.272632 -0.609095,0.609097 0,0.336383 0.272631,0.609096 0.609095,0.609096 z m -4.020035,0 h 1.340012 c 0.336465,0 0.609095,-0.272632 0.609095,-0.609096 0,-0.336465 -0.27263,-0.609097 -0.609095,-0.609097 h -1.340012 c -0.336465,0 -0.609096,0.272632 -0.609096,0.609097 0,0.336383 0.272631,0.609096 0.609096,0.609096 z m -4.020036,0 h 1.340012 c 0.336464,0 0.609096,-0.272632 0.609096,-0.609096 0,-0.336465 -0.272632,-0.609097 -0.609096,-0.609097 h -1.340012 c -0.336465,0 -0.609097,0.272632 -0.609097,0.609097 0,0.336383 0.272632,0.609096 0.609097,0.609096 z m -4.0200364,0 h 1.340012 c 0.3364648,0 0.6090964,-0.272632 0.6090964,-0.609096 0,-0.336465 -0.2726316,-0.609097 -0.6090964,-0.609097 h -1.340012 c -0.3364648,0 -0.6090963,0.272632 -0.6090963,0.609097 0,0.336383 0.2726315,0.609096 0.6090963,0.609096 z m -4.0200362,0 h 1.3400122 c 0.3364648,0 0.6090963,-0.272632 0.6090963,-0.609096 0,-0.336465 -0.2726315,-0.609097 -0.6090963,-0.609097 H 3.2891204 c -0.3364648,0 -0.6090964,0.272632 -0.6090964,0.609097 0,0.336383 0.2726316,0.609096 0.6090964,0.609096 z M 23.389301,10.950387 H 21.051183 V 9.967712 c 0,-0.336465 -0.272631,-0.609097 -0.609097,-0.609097 H 19.427007 C 19.241923,8.579946 18.94103,7.8429398 18.52855,7.1576657 l 0.727909,-0.7398491 c 0.233164,-0.2369791 0.233164,-0.6172177 0,-0.8542779 L 17.550503,3.8290758 C 17.436074,3.7126166 17.279577,3.6470779 17.116258,3.6470779 c -0.163319,0 -0.319735,0.065619 -0.434245,0.1819168 L 15.964984,4.5579611 C 15.295466,4.1436132 14.575352,3.8406081 13.814306,3.6530063 V 2.6090964 C 13.814306,2.2726315 13.541675,2 13.20521,2 H 10.793269 C 10.456805,2 10.184173,2.2726315 10.184173,2.6090964 V 3.6530876 C 9.4232896,3.8406081 8.7029315,4.1436132 8.0330879,4.5581236 L 7.3167094,3.8297256 C 7.2021992,3.7132663 7.0457833,3.6477275 6.8824642,3.6477275 h -8.11e-5 c -0.1632379,0 -0.3197351,0.065539 -0.434164,0.1819168 L 4.7421808,5.5636199 c -0.2332433,0.236979 -0.2332433,0.6172989 -8.12e-5,0.854278 L 5.4699292,7.1576657 C 5.0575303,7.8428585 4.7567178,8.579784 4.5714714,9.358534 H 3.5563108 c -0.3364649,0 -0.6090964,0.272632 -0.6090964,0.609096 v 0.982676 H 0.60909639 C 0.27263153,10.950306 0,11.222937 0,11.559402 v 10.720097 c 0,0.336464 0.27263153,0.609096 0.60909639,0.609096 H 23.389301 c 0.336465,0 0.609097,-0.272632 0.609097,-0.609096 V 11.559402 c 0,-0.336383 -0.272632,-0.609015 -0.609097,-0.609015 z M 4.1654071,10.576808 h 0.9031681 c 0.2969142,0 0.5506232,-0.214158 0.6004879,-0.506931 C 5.8320573,9.112134 6.1947539,8.222285 6.7468388,7.4251809 6.9134876,7.1847095 6.8855504,6.859777 6.6804068,6.6512224 L 6.0307851,5.9908807 6.8823019,5.1253954 7.5173051,5.7711187 C 7.7277277,5.9848709 8.0622433,6.0138639 8.306288,5.8392562 9.0879617,5.279375 9.9602689,4.9118055 10.898764,4.7467811 11.189995,4.6955363 11.402366,4.4425578 11.402366,4.1468617 V 3.2181928 h 1.193747 v 0.9285877 c 0,0.295696 0.21229,0.5485928 0.503439,0.5999194 0.938902,0.165268 1.811046,0.5328375 2.592152,1.0923127 0.243881,0.1747701 0.57856,0.145696 0.788901,-0.067976 L 17.116258,5.124826 17.967775,5.9906362 17.31791,6.6512215 c -0.205144,0.2085546 -0.233081,0.5335684 -0.06644,0.7740397 0.55241,0.7971858 0.915026,1.6869538 1.077614,2.6445338 0.04978,0.292773 0.303492,0.507093 0.600568,0.507093 h 0.903331 v 0.37358 h -4.596642 c -0.123525,-1.70149 -1.527533,-3.0478372 -3.237063,-3.0478372 -1.70953,0 -3.1137007,1.3463472 -3.2372256,3.0478372 H 4.1654071 Z m 5.819388,0.373579 C 10.103285,9.921583 10.961218,9.120743 11.999604,9.120743 c 1.03782,0 1.895509,0.80084 2.013998,1.829644 z M 22.780205,21.670402 H 1.2181928 V 12.168499 H 22.780205 Z"/>
</svg>