<svg xmlns="http://www.w3.org/2000/svg" width="24" height="24" viewBox="0 0 24 24">
  <path d="m 17.882878,6.388716 h 1.516724 c 0.460065,0 0.833339,-0.3644093 0.833339,-0.8145128 V 0.81480772 C 20.232991,0.3646551 19.859718,0 19.399602,0 H 17.882878 C 17.42256,0 17.049289,0.3646551 17.049289,0.81480772 V 5.5742032 c 0,0.4501035 0.373271,0.8145128 0.833589,0.8145128 z m -13.3210907,0 h 1.5167238 c 0.4603676,0 0.8336399,-0.3644093 0.8336399,-0.8145128 V 0.81480772 C 6.912151,0.3646551 6.5388787,0 6.0785111,0 H 4.5617873 C 4.1013694,0 3.7281475,0.3646551 3.7281475,0.81480772 V 5.5742032 c 0,0.4501035 0.3732219,0.8145128 0.8336398,0.8145128 z M 21.866478,2.6723019 v 2.9031796 c 0,1.3122077 -1.088791,2.3696435 -2.430721,2.3696435 h -1.533368 c -1.342031,0 -2.445253,-1.0574358 -2.445253,-2.3696435 V 2.661879 H 8.5458398 v 2.9136025 c 0,1.3122077 -1.1031724,2.3696435 -2.4450018,2.3696435 H 4.5671679 c -1.3418797,0 -2.43062,-1.0574358 -2.43062,-2.3696435 V 2.6723019 C 0.96372956,2.7068648 0,3.6556956 0,4.8219332 V 21.835942 c 0,1.188165 0.98500049,2.163987 2.2002602,2.163987 H 21.802716 c 1.213449,0 2.200259,-0.977837 2.200259,-2.163987 V 4.8219332 c 0,-1.1662376 -0.963678,-2.1150684 -2.136497,-2.1496313 z m -0.7122,18.1041391 c 0,0.513478 -0.425821,0.93005 -0.951208,0.93005 H 3.7580172 c -0.5253873,0 -0.9512083,-0.416572 -0.9512083,-0.93005 v -8.78835 c 0,-0.513673 0.4257709,-0.930246 0.9512083,-0.930246 H 20.20302 c 0.525386,0 0.951209,0.416573 0.951209,0.930246 z m -2.764417,-2.784594 c 0,-0.301133 -0.249468,-0.5445 -0.556615,-0.5445 H 15.88869 c -0.307751,0 -0.557168,0.243367 -0.557168,0.5445 v 1.900366 c 0,0.30084 0.249417,0.544451 0.557168,0.544451 h 1.944556 c 0.307147,0 0.556615,-0.24366 0.556615,-0.544451 z m -4.85933,0 c 0,-0.301133 -0.249468,-0.5445 -0.556614,-0.5445 H 11.02936 c -0.307397,0 -0.556866,0.243367 -0.556866,0.5445 v 1.900366 c 0,0.30084 0.249469,0.544451 0.556866,0.544451 h 1.944557 c 0.307146,0 0.556614,-0.24366 0.556614,-0.544451 z m -4.8590771,0 c 0,-0.301133 -0.249418,-0.5445 -0.5571677,-0.5445 h -1.944305 c -0.3073979,0 -0.5568663,0.243367 -0.5568663,0.5445 v 1.900366 c 0,0.30084 0.2494684,0.544451 0.5568663,0.544451 h 1.944305 c 0.3077497,0 0.5571677,-0.24366 0.5571677,-0.544451 z m 9.7184071,-4.751234 c 0,-0.300642 -0.249468,-0.544205 -0.556866,-0.544205 H 15.88869 c -0.307751,0 -0.557168,0.243563 -0.557168,0.544205 v 1.900709 c 0,0.301037 0.249417,0.544698 0.557168,0.544698 h 1.944305 c 0.307398,0 0.556866,-0.243661 0.556866,-0.544698 z m -4.85933,0 c 0,-0.300642 -0.249468,-0.544205 -0.556614,-0.544205 H 11.02936 c -0.307397,0 -0.556866,0.243563 -0.556866,0.544205 v 1.900709 c 0,0.301037 0.249469,0.544698 0.556866,0.544698 h 1.944557 c 0.307146,0 0.556614,-0.243661 0.556614,-0.544698 z m -4.8590771,0 c 0,-0.300642 -0.249418,-0.544205 -0.5571677,-0.544205 h -1.944305 c -0.3073979,0 -0.5568663,0.243563 -0.5568663,0.544205 v 1.900709 c 0,0.301037 0.2494684,0.544698 0.5568663,0.544698 h 1.944305 c 0.3077497,0 0.5571677,-0.243661 0.5571677,-0.544698 z"/>
</svg>