<svg xmlns="http://www.w3.org/2000/svg" width="24" height="24" viewBox="0 0 24 24">
    <path d="m 22.044602,15.839798 c 0.0072,-0.03091 0.0206,-0.05733 0.03135,-0.08598 0.0103,-0.02776 0.01747,-0.05733 0.03045,-0.0824 8.95e-4,-0.0018 0.0027,-0.0031 0.0035,-0.005 0.02463,-0.04612 0.05508,-0.08732 0.08957,-0.124497 0.04523,-0.04881 0.09942,-0.08732 0.160323,-0.117332 0.01209,-0.0063 0.02552,-0.01075 0.03807,-0.01613 0.05821,-0.02418 0.121362,-0.04076 0.189879,-0.04836 0.0094,-8.96e-4 0.01791,-0.0035 0.02776,-0.0044 0.05733,-0.0049 0.117779,-0.0018 0.17958,0.0054 0.0072,8.96e-4 0.01388,0 0.02105,8.96e-4 h 4.48e-4 c 0.005,4.48e-4 0.0112,0.0031 0.01657,0.004 0.05554,0.009 0.110613,0.02239 0.171518,0.04209 0.03583,0.01165 0.07524,0.02865 0.114197,0.04478 0.02373,0.0098 0.04791,0.01791 0.07166,0.02821 0.02552,0.01165 0.05195,0.01791 0.07882,0.02418 0.0094,0.0022 0.01836,0.0067 0.02776,0.0085 0.03269,0.0059 0.06538,0.0067 0.09807,0.0054 0.004,0 0.0081,8.96e-4 0.01209,4.48e-4 0.03494,-0.0022 0.06941,-0.0094 0.103001,-0.02016 0.0018,-4.48e-4 0.0035,-4.48e-4 0.0059,-8.95e-4 0.02194,-0.0072 0.04209,-0.01926 0.06269,-0.03001 0.01299,-0.0067 0.02686,-0.01075 0.03896,-0.01881 0.09136,-0.05867 0.154949,-0.148231 0.185402,-0.248994 0.01209,-0.0412 0.02016,-0.08329 0.02016,-0.127183 v -1.000453 c 0,-0.96373 -0.452757,-1.890738 -1.211829,-2.484114 L 14.830508,4.2284597 C 14.666153,4.0730626 14.412234,4.0641059 14.238476,4.2078597 14.098304,4.3234 13.89096,4.347135 13.653161,4.2732427 13.096957,4.1008282 12.627184,3.4922271 12.627184,2.9440831 c 0,-0.1133011 0.02194,-0.2140628 0.06493,-0.2991505 0.08911,-0.1768929 0.05151,-0.3909557 -0.09181,-0.5270961 L 11.26578,0.85585119 C 11.25413,0.84510329 11.24205,0.83480319 11.2295,0.82539879 10.187404,0.03094817 8.9088503,-0.21759754 7.9545239,0.20067577 L 1.3311168,3.3959435 C 0.57786665,3.721516 0.09062755,4.4846186 0.08883615,5.3457958 l -4.478e-4,0.00179 v 0.00403 7.0515342 c 0,0.133005 0.059114,0.258846 0.1612188,0.344381 0.1021053,0.08464 0.2355587,0.119571 0.3672207,0.09629 0.1491274,-0.02821 0.3081071,-0.01613 0.47066935,0.03448 0.672193,0.208242 1.2400415,0.944476 1.2400415,1.608607 0,0.256158 -0.088223,0.462609 -0.2485456,0.580835 -0.179132,0.132112 -0.4366344,0.155399 -0.7268282,0.06538 -0.1777886,-0.05509 -0.35826405,-0.155398 -0.53515695,-0.297808 -0.1347969,-0.10748 -0.3188551,-0.129871 -0.4746999,-0.05464 -0.1553971,0.07434 -0.2539197,0.231528 -0.2539197,0.403494 v 0.968657 c 0,0.963282 0.6524885,1.79938 1.56919655,2.027326 L 21.220594,23.94283 c 0.170176,0.04299 0.342143,0.06359 0.512766,0.06359 0.460817,0 0.910886,-0.152711 1.284825,-0.444696 0.512317,-0.399912 0.805646,-1.001348 0.805646,-1.65115 v -3.734903 c 0,-0.110166 -0.03986,-0.211824 -0.107031,-0.290194 -0.06718,-0.07882 -0.16122,-0.134797 -0.270041,-0.152262 -0.0094,-0.0013 -0.01881,-0.0054 -0.02821,-0.0072 -0.396777,-0.07434 -0.789077,-0.354234 -1.05688,-0.719215 v 0 c -0.128078,-0.175102 -0.222571,-0.36946 -0.280341,-0.569192 -0.01612,-0.05643 -0.03404,-0.112406 -0.04343,-0.16928 -0.01299,-0.08016 -0.01836,-0.158084 -0.01702,-0.231081 8.96e-4,-0.03851 0.0081,-0.073 0.01255,-0.108823 0.0035,-0.02955 0.0044,-0.0609 0.0112,-0.08867 z M 1.7032636,4.2100986 8.3284623,1.0139352 C 8.9693073,0.7340414 9.8855673,0.9342215 10.667926,1.523118 l 1.10614,1.0461311 c -0.02821,0.1200185 -0.04209,0.244963 -0.04209,0.3748339 0,0.9373083 0.727724,1.8965604 1.656971,2.1845152 0.376626,0.1168837 0.749668,0.1070314 1.067627,-0.021496 L 21.584232,11.850081 13.879764,9.5553986 C 13.683166,8.792744 13.060683,8.0968161 12.293997,7.8599139 11.79198,7.7045169 11.293992,7.7712436 10.92498,8.0421808 10.74361,8.1756342 10.604782,8.3498401 10.511185,8.5527071 L 1.4878574,5.86707 C 1.2106505,5.8137783 1.0494317,5.6230026 1.0095748,5.2992215 1.0068878,5.2790691 0.99703565,5.2607081 0.99121385,5.2410036 1.027488,4.7837691 1.29126,4.388335 1.7032636,4.2100986 Z M 13.054861,10.044429 c 0,0.141962 -0.03269,0.335873 -0.189433,0.450965 -0.137932,0.102105 -0.340351,0.118674 -0.571431,0.04746 -0.06941,-0.0215 -0.137931,-0.04971 -0.203762,-0.08419 -0.39633,-0.205106 -0.716976,-0.6202446 -0.800721,-1.0362788 -0.01388,-0.068519 -0.02105,-0.137036 -0.02105,-0.2046584 0.0018,-0.00985 0.0076,-0.058666 0.0085,-0.068071 8.96e-4,-0.010748 -0.0031,-0.0206 -0.0027,-0.0309 0.01388,-0.1249445 0.05911,-0.2646675 0.183163,-0.3560249 0.08195,-0.060457 0.186745,-0.09091 0.306764,-0.09091 0.0824,0 0.171967,0.014331 0.265563,0.043439 0.520378,0.1612188 0.959251,0.7030933 1.014783,1.2212327 4.48e-4,0.00403 -4.47e-4,0.00761 -4.47e-4,0.011644 z m 9.872414,11.866602 c 0,0.3717 -0.167936,0.716528 -0.461266,0.944922 -0.293327,0.229736 -0.667266,0.308108 -1.011199,0.223467 L 1.892248,17.316743 C 1.3575388,17.182842 0.98404855,16.704558 0.98404855,16.152832 v -0.199284 c 0.0344829,0.01255 0.0689658,0.02463 0.10344865,0.03494 0.5597877,0.173759 1.1142013,0.100315 1.5226223,-0.20018 0.3949862,-0.29109 0.6126317,-0.753698 0.6126317,-1.301394 0,-1.056879 -0.8217682,-2.139285 -1.8705863,-2.463961 -0.1227055,-0.03807 -0.2463067,-0.06449 -0.36856415,-0.07793 V 6.6476379 c 0.0918049,0.039409 0.18943205,0.068965 0.29153725,0.088223 l 9.111551,2.7142982 c 0.0027,0.021496 0.0098,0.042544 0.01344,0.06404 0.0076,0.047022 0.01881,0.093596 0.02955,0.1406187 0.01478,0.064487 0.03179,0.1276315 0.05285,0.1912234 0.01568,0.047918 0.03359,0.094492 0.05285,0.1410666 0.02463,0.060457 0.0515,0.1200182 0.0815,0.1786842 0.02329,0.04658 0.04791,0.0918 0.07434,0.136589 0.03359,0.05687 0.06941,0.111061 0.107479,0.165249 0.03,0.04299 0.06001,0.08553 0.09271,0.127183 0.04165,0.0524 0.08642,0.10121 0.13211,0.150024 0.03538,0.03807 0.06985,0.07658 0.10748,0.111956 0.05016,0.04791 0.103896,0.09091 0.158083,0.13435 0.03807,0.03091 0.0748,0.06315 0.114645,0.09181 0.06225,0.04433 0.128079,0.08196 0.194359,0.119571 0.03583,0.0206 0.06985,0.04433 0.10703,0.06315 0.104793,0.05285 0.21272,0.09807 0.32423,0.132558 0.112405,0.03494 0.224362,0.05464 0.334976,0.06717 0.03,0.0035 0.05911,0.005 0.08867,0.0072 0.03448,0.0022 0.06985,0.0081 0.104344,0.0081 0.06136,0 0.120915,-0.0063 0.180476,-0.01299 0.0112,-0.0013 0.02283,-8.96e-4 0.03404,-0.0027 0.102554,-0.01434 0.200627,-0.0412 0.295121,-0.07568 0.02194,-0.0081 0.04343,-0.01702 0.06493,-0.02642 0.0936,-0.03986 0.184058,-0.08598 0.26601,-0.14644 0.07927,-0.05867 0.147784,-0.127184 0.21048,-0.20018 0.01657,-0.01881 0.03181,-0.03851 0.04747,-0.05822 0.05419,-0.07031 0.103,-0.145096 0.14241,-0.226153 0.0035,-0.0072 0.0081,-0.01299 0.01165,-0.02016 0.03269,-0.06986 0.06046,-0.142412 0.08196,-0.21899 l 8.088259,2.407535 c 0.549489,0.117779 0.948058,0.610393 0.948058,1.172419 v 0.400807 c -0.138381,-0.01836 -0.272282,-0.0206 -0.401705,-0.0094 -0.111062,0.0098 -0.217197,0.03181 -0.318855,0.0618 -0.03538,0.01031 -0.06896,0.02508 -0.103,0.03807 -0.07075,0.02642 -0.139276,0.05687 -0.204659,0.0936 -0.0318,0.01791 -0.06269,0.03628 -0.09315,0.05643 -0.06851,0.04568 -0.131662,0.09718 -0.192119,0.154053 -0.01523,0.01434 -0.03359,0.02373 -0.04836,0.03896 -0.005,0.005 -0.0076,0.01165 -0.01254,0.01701 -0.0081,0.0085 -0.01747,0.01434 -0.02552,0.02329 -4.48e-4,4.47e-4 -4.48e-4,4.47e-4 -8.95e-4,8.95e-4 -0.04255,0.04702 -0.073,0.10524 -0.109719,0.158083 -0.02955,0.04299 -0.06404,0.0824 -0.08911,0.128528 -0.0044,0.0081 -0.01075,0.01388 -0.01478,0.0215 -0.03628,0.06942 -0.05777,0.145993 -0.08375,0.22078 -0.01299,0.03807 -0.03225,0.073 -0.04255,0.112407 -0.02642,0.09853 -0.03851,0.203762 -0.04746,0.309898 -0.0027,0.03 -0.01075,0.05777 -0.01209,0.08822 0,0.005 -0.0018,0.0094 -0.0018,0.01434 -0.0031,0.115092 0.0081,0.235558 0.02508,0.35692 0.0027,0.01836 4.47e-4,0.03538 0.0031,0.05374 0.02105,0.127631 0.05464,0.253024 0.09628,0.376625 0.0031,0.009 0.0035,0.01791 0.0067,0.02642 0.01478,0.04299 0.03448,0.08732 0.06807,0.159875 0.02284,0.05374 0.04478,0.107479 0.07121,0.159876 0.0094,0.02016 0.01702,0.04075 0.02776,0.0609 0.02552,0.04791 0.05598,0.09271 0.08508,0.137931 0.02552,0.04165 0.05106,0.08285 0.07837,0.123154 l -4.47e-4,4.47e-4 c 0.01791,0.03 0.03673,0.06001 0.05508,0.08419 0.073,0.09987 0.154053,0.193463 0.222572,0.265116 0.0094,0.0112 0.02911,0.03494 0.03986,0.04568 0.03091,0.0318 0.06449,0.05867 0.09628,0.08867 0.01478,0.01388 0.03001,0.02776 0.04523,0.04165 0.07479,0.06762 0.151814,0.129871 0.231527,0.18809 0.01434,0.01031 0.02821,0.02105 0.04255,0.03135 0.08375,0.05867 0.169728,0.111509 0.257504,0.15898 0.01344,0.0072 0.02596,0.01568 0.03941,0.02239 0.102105,0.05285 0.206002,0.100315 0.31169,0.137483 v 3.389626 z M 5.0116396,9.7431528 c 0,-0.6969272 -0.5393688,-1.4099683 -1.2282391,-1.6239254 C 3.397114,7.9988206 3.011275,8.0529813 2.7248053,8.2647003 2.4486305,8.4683624 2.2897293,8.800936 2.2897293,9.177375 c 0,0.6973749 0.5398165,1.410416 1.2286867,1.623478 0.1356256,0.04208 0.2708035,0.06266 0.4019529,0.06266 0.2421565,0 0.470437,-0.07028 0.6566424,-0.207691 0.2766223,-0.203661 0.4346283,-0.536235 0.4346283,-0.9126742 z M 4.0456994,9.9347295 C 3.9906435,9.9754619 3.8912743,9.979938 3.7834005,9.9459197 3.4647029,9.8469982 3.1849473,9.4884633 3.1849473,9.177375 c 0,-0.05237 0.0094,-0.1468157 0.070723,-0.1924718 0.030437,-0.02238 0.073856,-0.03357 0.124883,-0.03357 0.041628,0 0.088179,0.00761 0.1378635,0.022829 0.3186976,0.098922 0.5980056,0.457904 0.5980056,0.7689922 0,0.052371 -0.00895,0.1468158 -0.070723,0.1915751 z M 14.791001,15.444796 c 0.127121,0.03939 0.254241,0.05908 0.378229,0.05908 0.228728,0 0.444476,-0.06669 0.621281,-0.196948 0.261852,-0.193367 0.4118,-0.507589 0.4118,-0.86299 0,-0.651272 -0.50356,-1.316866 -1.146326,-1.516052 -0.363906,-0.11235 -0.727365,-0.06222 -0.998616,0.138311 -0.261851,0.193367 -0.412247,0.508037 -0.412247,0.863438 -4.48e-4,0.650376 0.503112,1.316418 1.145879,1.515156 z m -0.202767,-1.657943 c 0.02059,-0.01522 0.05148,-0.02283 0.08863,-0.02283 0.03402,0 0.07296,0.0063 0.114141,0.0188 0.270355,0.08371 0.515645,0.39882 0.515645,0.661119 0,0.03223 -0.005,0.110559 -0.04789,0.141891 -0.03849,0.0291 -0.116826,0.02999 -0.202767,0.004 -0.270356,-0.08371 -0.515645,-0.398372 -0.515645,-0.660671 -4.48e-4,-0.03223 0.0044,-0.110559 0.04789,-0.142339 z m 0.786896,4.462662 c -0.362563,-0.111456 -0.726917,-0.06266 -0.999063,0.138311 -0.261851,0.193366 -0.4118,0.507588 -0.4118,0.86299 0,0.65127 0.50356,1.316865 1.146327,1.516051 0.12712,0.03939 0.254241,0.05908 0.377781,0.05908 0.229177,0 0.444476,-0.06669 0.621281,-0.196948 0.261852,-0.193366 0.412249,-0.508035 0.412249,-0.863438 -8.96e-4,-0.651718 -0.504456,-1.317312 -1.146775,-1.51605 z m 0.202767,1.657943 c -0.03939,0.0291 -0.116825,0.03044 -0.202767,0.004 -0.270356,-0.08371 -0.515645,-0.398819 -0.515645,-0.661119 0,-0.03223 0.005,-0.110559 0.04789,-0.141891 0.02015,-0.01522 0.05103,-0.02282 0.08863,-0.02282 0.03402,0 0.07296,0.0063 0.114141,0.0188 0.270355,0.08371 0.515646,0.398371 0.515646,0.66067 0,0.03223 -0.005,0.110113 -0.04789,0.14234 z M 5.9753418,14.24968 c -0.4856558,-0.150397 -0.967283,-0.08549 -1.3226846,0.176806 -0.3406305,0.251108 -0.5357879,0.664251 -0.5357879,1.133793 0,0.901933 0.7000604,1.824903 1.5939356,2.101525 0.1723294,0.05326 0.3437637,0.07968 0.5098266,0.07968 0.3016884,0 0.5836821,-0.08684 0.8128579,-0.256033 0.3406304,-0.251108 0.535788,-0.663803 0.535788,-1.133345 -4.476e-4,-0.90238 -0.7005081,-1.826245 -1.5939356,-2.10242 z M 6.50173,16.764795 c -0.1262257,0.0931 -0.313774,0.107874 -0.5268358,0.04207 -0.5223597,-0.161587 -0.9632546,-0.732737 -0.9632546,-1.246592 0,-0.130701 0.029542,-0.308402 0.1718818,-0.413591 0.074751,-0.05461 0.1700914,-0.08281 0.2797557,-0.08281 0.076541,0 0.1593488,0.01343 0.2470801,0.04073 0.5223597,0.161587 0.9632546,0.732737 0.9632546,1.247039 0,0.130702 -0.029542,0.308403 -0.1718818,0.413143 z m 12.006663,-1.619897 c -0.486103,-0.150397 -0.967282,-0.08549 -1.322685,0.176806 -0.34063,0.251108 -0.535787,0.664251 -0.535787,1.133793 0,0.901933 0.70006,1.824903 1.593935,2.101525 0.17233,0.05326 0.343764,0.07968 0.509827,0.07968 0.301688,0 0.583682,-0.08684 0.812858,-0.256033 0.340631,-0.251108 0.535788,-0.663804 0.535788,-1.133345 -4.48e-4,-0.90238 -0.700508,-1.826245 -1.593936,-2.10242 z m 0.526388,2.515115 c -0.126225,0.0931 -0.313774,0.108322 -0.526836,0.04207 -0.522359,-0.161587 -0.963254,-0.732737 -0.963254,-1.246592 0,-0.130701 0.02954,-0.308402 0.171882,-0.413591 0.07476,-0.05461 0.170091,-0.08281 0.279756,-0.08281 0.07654,0 0.159348,0.01343 0.24708,0.04073 0.522359,0.161587 0.963254,0.732737 0.963254,1.247039 0,0.130702 -0.02954,0.308403 -0.171882,0.413143 z m -6.679669,-3.828847 c -0.04341,-0.113245 -0.09489,-0.223804 -0.151739,-0.331231 -0.03671,-0.06938 -0.07923,-0.135178 -0.121302,-0.20232 -0.02999,-0.04789 -0.05998,-0.09534 -0.0922,-0.141891 -0.04834,-0.06938 -0.09892,-0.136073 -0.152635,-0.201872 -0.03089,-0.03759 -0.064,-0.07341 -0.09624,-0.109665 -0.10116,-0.112797 -0.209033,-0.217537 -0.324964,-0.315563 -0.04163,-0.03536 -0.08146,-0.07296 -0.124883,-0.106083 -0.05461,-0.04163 -0.111007,-0.07789 -0.167853,-0.115932 -0.06669,-0.04476 -0.134731,-0.08684 -0.204111,-0.125777 -0.04745,-0.02641 -0.09445,-0.05238 -0.143234,-0.0761 -0.123988,-0.06043 -0.249765,-0.114588 -0.379125,-0.154425 -0.105636,-0.03267 -0.210376,-0.05505 -0.314669,-0.07251 -0.02149,-0.0035 -0.04297,-0.0067 -0.06446,-0.0094 -0.2130617,-0.0291 -0.4211999,-0.02685 -0.6185954,0.0067 -0.00448,8.96e-4 -0.0094,0.0018 -0.013876,0.0027 -0.2600608,0.04656 -0.501322,0.143682 -0.7076698,0.295869 -0.02059,0.01522 -0.034913,0.03626 -0.055056,0.05192 -0.055504,0.04476 -0.1060833,0.09533 -0.1553204,0.14771 -0.034466,0.0367 -0.072065,0.06982 -0.1025024,0.109665 -0.064903,0.08325 -0.1226448,0.173224 -0.1723295,0.271251 -8.951e-4,0.0018 -4.476e-4,0.0035 -0.00134,0.0054 -0.129359,0.257375 -0.2009764,0.553244 -0.2009764,0.879104 0,1.208991 0.9408741,2.447973 2.1418079,2.819937 0.226939,0.07028 0.45298,0.104739 0.670519,0.104739 0.390314,0 0.754221,-0.111454 1.048748,-0.328544 0.443133,-0.326755 0.687527,-0.847324 0.687527,-1.465025 0,-0.316459 -0.06714,-0.633813 -0.183967,-0.938187 4.47e-4,0 4.47e-4,0 4.47e-4,-4.48e-4 z M 9.1197949,12.9825 c 0.042523,-0.04476 0.091312,-0.08192 0.1436825,-0.114141 0.02999,-0.0188 0.062665,-0.03312 0.095788,-0.04745 0.045656,-0.02015 0.092655,-0.03849 0.1432348,-0.05058 0.037151,-0.0085 0.076094,-0.01208 0.1154831,-0.01612 0.058189,-0.0063 0.1163784,-0.01208 0.178596,-0.0085 0.016561,8.95e-4 0.03357,0.0022 0.050579,0.0044 0.09176,0.009 0.1866527,0.02551 0.2851267,0.05595 0.09265,0.02864 0.182624,0.06804 0.27125,0.111902 0.01835,0.009 0.03626,0.01835 0.05416,0.02775 0.179939,0.09669 0.349135,0.221567 0.499532,0.367934 0.0076,0.0076 0.01567,0.01477 0.02328,0.02282 0.145472,0.145025 0.271698,0.309745 0.375095,0.484313 0.01522,0.02641 0.03044,0.05237 0.04476,0.07923 0.0094,0.01746 0.01611,0.03581 0.02551,0.05326 -0.222909,0.248871 -0.598453,0.322279 -1.029053,0.190234 -0.5331012,-0.165616 -1.0227853,-0.602035 -1.2962744,-1.142298 0.00626,-0.0072 0.012981,-0.01254 0.019247,-0.0188 z m 2.1999981,2.53257 c -0.230518,0.170093 -0.558169,0.200978 -0.92297,0.08907 -0.5711487,-0.177253 -1.0742612,-0.669176 -1.3307411,-1.225105 0.31825,0.281097 0.682156,0.499979 1.0657571,0.619042 0.22649,0.06982 0.450294,0.103845 0.664699,0.103845 0.303031,0 0.586368,-0.07072 0.83479,-0.199185 -0.0273,0.264088 -0.132491,0.480732 -0.311535,0.612328 z"/>
</svg>