<svg xmlns="http://www.w3.org/2000/svg" width="24" height="24" viewBox="0 0 24 24">
    <path d="m 22.159252,13.374293 h 0.628167 c 0.667537,0 1.210587,-0.543048 1.210587,-1.210587 0,-0.322427 -0.125663,-0.626246 -0.35519,-0.856851 -0.229152,-0.228121 -0.532972,-0.353735 -0.855397,-0.353735 h -0.70288 c 1.159263,-0.852492 1.913467,-2.2252076 1.913467,-3.7713444 0,-2.5801608 -2.09917,-4.6793296 -4.67933,-4.6793296 H 1.2107743 c -0.66753822,0 -1.21058681799,0.5430489 -1.21058681799,1.2105871 0,0.667538 0.54304859799,1.2105869 1.21058681799,1.2105869 h 0.6284478 c 0.5491419,1.4503319 0.5491419,3.0659323 0,4.5162657 H 1.2107743 c -0.66753822,0 -1.21058681799,0.5430475 -1.21058681799,1.2105873 0,0.667538 0.54304859799,1.210585 1.21058681799,1.210585 h 0.702879 C 0.75424979,12.713691 0,14.086499 0,15.632635 c 0,1.248975 0.4867564,2.424033 1.3707453,3.308726 0.77642,0.776419 1.7779149,1.245974 2.8575437,1.348528 v 2.391973 c 0,0.159784 0.083993,0.307803 0.2210909,0.389686 0.1372387,0.08198 0.307287,0.08577 0.4479941,0.01004 l 1.8090371,-0.973654 1.8090371,0.973654 c 0.06726,0.03618 0.1412226,0.05422 0.2151852,0.05422 0.080665,0 0.1612367,-0.02146 0.2328556,-0.06426 0.1371448,-0.08198 0.221091,-0.229949 0.221091,-0.389686 v -2.370318 h 13.602745 c 0.667537,0 1.210587,-0.543049 1.210587,-1.210587 0,-0.323458 -0.125897,-0.62751 -0.355189,-0.856803 -0.229154,-0.228123 -0.532972,-0.353784 -0.855398,-0.353784 h -0.628168 c -0.185234,-0.48835 -0.310193,-0.996809 -0.370749,-1.516749 -0.02925,-0.244949 -0.04406,-0.494304 -0.04406,-0.740986 0,-0.246682 0.01481,-0.495989 0.04419,-0.74225 0.0606,-0.519285 0.185564,-1.027883 0.370705,-1.516093 z M 1.2107743,10.953165 c -0.1668611,0 -0.30264668,-0.135786 -0.30264668,-0.302646 0,-0.166862 0.13578558,-0.302647 0.30264668,-0.302647 H 19.178905 c 1.162779,0 2.229332,-0.6350095 2.783442,-1.6572688 0.512159,-0.9447333 0.512159,-2.0728277 0,-3.017561 C 21.40819,4.650783 20.341684,4.0157736 19.178905,4.0157736 H 2.1451967 1.2107743 c -0.1668611,0 -0.30264668,-0.1357855 -0.30264668,-0.3026475 0,-0.166861 0.13578548,-0.3026465 0.30264668,-0.3026465 H 19.318769 c 2.07953,0 3.771389,1.6918593 3.771389,3.7713902 0,2.078733 -1.690594,3.7700772 -3.769046,3.7713422 H 1.2107743 Z M 7.7083747,7.5227163 h -4.558121 c 0.010593,-0.2270903 0.010593,-0.4545098 0,-0.6815529 h 2.2477036 c 0.2507136,0 0.4539468,-0.2032805 0.4539468,-0.4539463 0,-0.2507139 -0.20328,-0.4539473 -0.4539468,-0.4539473 H 3.0505589 C 2.9915483,5.5923763 2.9095238,5.2548108 2.8017672,4.9237602 H 19.178905 c 0.829293,0 1.590056,0.4529623 1.985226,1.1819958 0.365315,0.6738189 0.365315,1.4783615 0,2.1522275 -0.395217,0.7290795 -1.155933,1.1819953 -1.985226,1.1819953 H 2.8017672 C 2.90943,9.1090218 2.9915483,8.7715033 3.050559,8.4306558 h 4.6578626 c 0.2507135,0 0.4539466,-0.2032324 0.4539466,-0.4539462 0,-0.25076 -0.2032799,-0.4539933 -0.4539935,-0.4539933 z M 8.2767807,21.921987 6.921737,21.192627 c -0.067166,-0.03614 -0.1411758,-0.05422 -0.2151851,-0.05422 -0.07401,0 -0.147972,0.01809 -0.2151853,0.05422 l -1.3550437,0.72936 v -5.040706 h 3.1405046 v 5.040706 z M 8.7307273,15.973342 H 4.6822825 c -0.2507134,0 -0.4539467,0.203279 -0.4539467,0.453947 V 17.81036 C 4.0306336,17.756741 3.8401026,17.677294 3.6637735,17.571974 3.3143026,17.364476 3.0274985,17.066001 2.8341551,16.708469 2.6558574,16.379479 2.5615997,16.007417 2.5615997,15.632541 c 0,-0.37539 0.094257,-0.747405 0.2726959,-1.076158 C 3.2291378,13.827208 3.9898089,13.3742 4.8192869,13.3742 H 21.195862 c -0.107756,0.330112 -0.191233,0.667538 -0.250525,1.009556 h -2.345148 c -0.250714,0 -0.453947,0.203279 -0.453947,0.453947 0,0.250713 0.203233,0.453945 0.453947,0.453945 h 2.245219 c -0.0055,0.113756 -0.0089,0.227513 -0.0089,0.340846 0,0.113336 0.0035,0.227044 0.0089,0.340708 h -4.555589 c -0.250715,0 -0.453947,0.203232 -0.453947,0.453948 0,0.250712 0.203279,0.453944 0.453947,0.453944 h 4.655519 c 0.05938,0.341972 0.142769,0.679163 0.250479,1.009088 H 9.1847209 v -1.009088 h 1.4829551 c 0.250713,0 0.453946,-0.203279 0.453946,-0.453944 0,-0.250669 -0.20328,-0.453948 -0.453946,-0.453948 H 8.7307273 Z M 22.787419,18.79831 c 0.08067,0 0.156971,0.03174 0.214107,0.08854 0.05708,0.05708 0.08854,0.133161 0.08854,0.214107 0,0.166862 -0.135785,0.302647 -0.302647,0.302647 H 9.1847209 V 18.798311 Z M 4.8193335,12.466353 c -1.1631061,0 -2.229705,0.635243 -2.7832059,1.657361 -0.2502448,0.460884 -0.3824682,0.982606 -0.3824682,1.508921 0,0.525567 0.1321765,1.047195 0.3821401,1.508219 0.2711493,0.501474 0.6738189,0.920549 1.1634812,1.21129 0.3167551,0.189077 0.6666009,0.32013 1.0290551,0.389124 v 0.634635 C 3.3916868,19.276817 2.6174231,18.903957 2.0129264,18.299461 1.3003919,17.586364 0.90798701,16.639193 0.90798701,15.632589 c 0,-2.078873 1.69064069,-3.770218 3.76928029,-3.77153 H 19.318769 c 7.97e-4,0 0.0016,-4.7e-5 0.0023,-4.7e-5 h 3.466399 c 0.08067,0 0.157018,0.03174 0.213357,0.08783 0.05755,0.05779 0.08929,0.134145 0.08929,0.214811 0,0.166861 -0.135786,0.302646 -0.302647,0.302646 H 4.8193335 Z"/>
    <circle cx="9.279727" cy="7.9765239" r="0.45394665"/>
</svg>
