<svg xmlns="http://www.w3.org/2000/svg" width="24" height="24" viewBox="0 0 24 24">
    <path d="M 11.99415,0 C 7.7595842,0 4.3272816,3.4323024 4.3272816,7.6668685 c 0,1.8260571 0.6420901,3.5003635 1.7089926,4.8165285 0.3439103,0.423588 0.9192461,1.090546 1.2191442,1.54661 1.7268263,2.623412 3.9421946,6.433409 4.5878016,9.560087 0.110764,0.533943 0.244271,0.543268 0.388002,0.01734 0.460482,-1.685925 1.654757,-5.369615 4.121102,-9.224114 0.29409,-0.459664 0.890368,-1.102979 1.260537,-1.503498 0.536152,-0.580653 0.982399,-1.245404 1.321482,-1.970197 C 19.396625,9.9209295 19.660937,8.8263752 19.660937,7.6677678 19.660937,3.4327112 16.228636,0 11.99415,0 Z m 0,11.809241 c -2.3635164,0 -4.2794775,-1.9159609 -4.2794775,-4.2794779 0,-2.3631079 1.9159611,-4.2789866 4.2794775,-4.2789866 2.363517,0 4.279478,1.9159604 4.279478,4.2789866 0,2.3635985 -1.915961,4.2794779 -4.279478,4.2794779 z"/>
    <circle cx="11.994151" cy="7.3785048" r="1.7797546"/>
</svg>
