<svg xmlns="http://www.w3.org/2000/svg" width="24" height="24" viewBox="0 0 24 24">
    <path d="m 15.392686,14.176606 h -9.5e-5 c 0,-1.131117 -0.916922,-2.04804 -2.048039,-2.04804 h -2.225948 c -1.131117,0 -2.0480401,0.916923 -2.0480401,2.04804 v 2.130032 h 6.3221221 z"/>
    <circle cx="12.231859" cy="9.562973" r="2.0062699"/>
    <path d="M 20.167399,0 H 4.2958518 C 3.6575827,0 3.140123,0.5174597 3.140123,1.1556819 V 4.0720302 C 2.556094,4.1300674 2.1,4.622587 2.1,5.2218522 2.1,5.8211171 2.556094,6.3136839 3.140123,6.3716739 V 8.5915283 C 2.556094,8.6495656 2.1,9.1420852 2.1,9.7413504 c 0,0.5992656 0.456094,1.0918316 1.040123,1.1498216 v 2.219855 C 2.556094,13.169064 2.1,13.661584 2.1,14.260849 c 0,0.599265 0.456094,1.091831 1.040123,1.149822 v 2.219854 C 2.556094,17.688562 2.1,18.181082 2.1,18.780348 c 0,0.599264 0.456094,1.09183 1.040123,1.149821 v 2.916348 c 0,0.638269 0.5174597,1.155683 1.155682,1.155683 h 15.871546 c 0.638269,0 1.155683,-0.51746 1.155683,-1.155683 V 1.1556819 C 21.323081,0.5174597 20.80562,0 20.167399,0 Z M 19.01167,21.69107 H 5.4515338 v -1.760667 c 0.5840291,-0.05799 1.040123,-0.550557 1.040123,-1.149822 0,-0.599265 -0.4560939,-1.091831 -1.040123,-1.149822 v -2.219854 c 0.5840291,-0.05804 1.040123,-0.550557 1.040123,-1.149822 0,-0.599265 -0.4560939,-1.091831 -1.040123,-1.149822 v -2.219855 c 0.5840291,-0.05803 1.040123,-0.550556 1.040123,-1.1498213 0,-0.5992648 -0.4560939,-1.0918315 -1.040123,-1.149822 V 6.3718149 c 0.5840291,-0.058038 1.040123,-0.5505572 1.040123,-1.1498221 0,-0.5992653 -0.4560939,-1.0918315 -1.040123,-1.149822 V 2.3114107 H 19.01167 Z"/>
</svg>
