<svg xmlns="http://www.w3.org/2000/svg" width="24" height="24" viewBox="0 0 24 24">
    <path d="m 16.454508,6.8194766 c 1.880181,0 3.409739,-1.5295565 3.409739,-3.4097382 C 19.864247,1.5295566 18.334689,0 16.454508,0 c -1.880056,0 -3.409613,1.5295566 -3.409613,3.4097384 0,1.8801817 1.529557,3.4097382 3.409613,3.4097382 z m 0,-5.0669769 c 0.913804,0 1.657239,0.7434353 1.657239,1.6572387 0,0.9138033 -0.743435,1.6572387 -1.657239,1.6572387 -0.913803,0 -1.657112,-0.7434354 -1.657112,-1.6572387 0,-0.9138034 0.743309,-1.6572387 1.657112,-1.6572387 z"/>
    <path d="M 23.749163,8.3638042 C 23.409428,8.0191879 22.854637,8.0149315 22.51002,8.3547896 22.48974,8.3750706 20.154536,10.235346 13.204373,7.2648596 10.198335,5.9801545 7.7812627,5.8589817 6.0201257,6.904473 3.8703094,8.1806684 3.6068086,10.689246 3.5966691,10.795397 c -0.045941,0.47981 0.3046845,0.904291 0.7842435,0.95286 0.029792,0.003 0.05946,0.0045 0.088752,0.0045 0.4427565,0 0.8230488,-0.336104 0.8709922,-0.785621 0.00188,-0.0174 0.2021634,-1.7514974 1.5875143,-2.5636556 1.2357623,-0.7245333 3.1680189,-0.5610505 5.5872199,0.4729249 3.283558,1.4032507 5.699254,1.8369947 7.431976,1.8368697 2.546631,-1.25e-4 3.617158,-0.937337 3.792658,-1.1103339 0.344741,-0.3397343 0.348749,-0.8945259 0.0091,-1.2391423 z"/>
    <path d="M 12.61353,11.047507 C 12.279679,10.69851 11.726639,10.685366 11.376641,11.018092 7.1857883,15.001523 0.79880348,21.051403 0.34027445,21.429566 c -0.37828956,0.292292 -0.45277079,0.835317 -0.16486015,1.218989 0.17212051,0.229453 0.4352458,0.3505 0.70162571,0.3505 0.18288589,0 0.36752419,-0.0572 0.52512399,-0.175375 0.3990692,-0.299428 7.5122145,-7.048804 10.548671,-9.933669 l 4.223024,4.415048 c 0.187266,0.195779 0.125052,0.409959 0.0895,0.492952 -0.03543,0.08299 -0.147085,0.276019 -0.417971,0.276019 h -5.78062 c -0.4839409,0 -0.8762502,0.39231 -0.8762502,0.876251 0,0.483939 0.3923093,0.876248 0.8762502,0.876248 h 5.78049 c 0.898782,0 1.676516,-0.513481 2.02952,-1.33991 0.353128,-0.826553 0.186641,-1.743362 -0.434619,-2.392788 z"/>
</svg>
