<svg xmlns="http://www.w3.org/2000/svg" width="24" height="24" viewBox="0 0 24 24">
    <path d="M 12.612876,11.528307 C 12.279042,11.164121 11.726031,11.150405 11.376051,11.497607 7.1854156,15.654402 0.79876205,21.967579 0.3402568,22.3622 c -0.37826994,0.305013 -0.45274731,0.871671 -0.1648516,1.272041 0.17211159,0.239439 0.43522323,0.365754 0.70158933,0.365754 0.18287637,0 0.36750517,-0.05969 0.52509677,-0.183007 0.3990485,-0.31246 7.5118249,-7.355576 10.5481237,-10.365994 l 4.222805,4.607196 c 0.187257,0.2043 0.125046,0.427801 0.0895,0.514406 -0.03543,0.0866 -0.147078,0.288032 -0.41795,0.288032 h -5.78032 c -0.4839158,0 -0.8762047,0.409383 -0.8762047,0.914386 0,0.505001 0.3922889,0.914383 0.8762047,0.914383 h 5.78019 c 0.898736,0 1.676429,-0.535828 2.029415,-1.398224 0.35311,-0.862526 0.186631,-1.819235 -0.434596,-2.496925 z M 23.747931,8.7278062 C 23.408214,8.3681918 22.853452,8.3637501 22.508853,8.7183992 22.488574,8.7395629 20.153491,10.6808 13.203688,7.5810343 10.197806,6.2404174 7.7808592,6.113971 6.0198135,7.2049633 3.8701087,8.5367001 3.6066216,11.154454 3.5964826,11.265225 c -0.045939,0.500691 0.3046687,0.943646 0.7842028,0.994329 0.02979,0.0031 0.059457,0.0047 0.088747,0.0047 0.4427335,0 0.8230061,-0.350732 0.870947,-0.819812 0.00188,-0.01816 0.2021529,-1.8277247 1.587432,-2.6752289 1.2356982,-0.7560658 3.1678546,-0.585468 5.5869306,0.4935071 3.283388,1.4643218 5.698958,1.9169428 7.431591,1.9168128 2.546498,-1.31e-4 3.61697,-0.978131 3.792461,-1.158657 0.344723,-0.3545203 0.348731,-0.933457 0.0091,-1.2930715 z M 16.453655,7.1162677 c 1.880083,0 3.409562,-1.5961245 3.409562,-3.5581337 C 19.863217,1.5961246 18.333738,0 16.453655,0 c -1.879959,0 -3.409437,1.5961246 -3.409437,3.558134 0,1.9620092 1.529478,3.5581337 3.409437,3.5581337 z m 0,-5.2874973 c 0.913756,0 1.657153,0.7757904 1.657153,1.7293636 0,0.953573 -0.743397,1.7293635 -1.657153,1.7293635 -0.913756,0 -1.657026,-0.7757905 -1.657026,-1.7293635 0,-0.9535732 0.74327,-1.7293636 1.657026,-1.7293636 z"/>
</svg>