<svg xmlns="http://www.w3.org/2000/svg" width="130" height="160" viewBox="0 0 130 160">
    <g style="fill:#0f1f47;fill-opacity:1;fill-rule:nonzero;stroke:none;stroke-width:0.1"
       transform="matrix(1.3333333,0,0,-1.3333333,-1866.3647,1369.6816)">
        <path d="m 1449.57,925.806 c 0.19,-0.006 0.41,0.133 0.49,0.308 l 35.93,78.456 c 0.09,0.18 0.1,0.42 0.04,0.54 -0.06,0.12 -0.27,0.22 -0.46,0.22 l -49.68,-0.01 c -0.54,0 -0.63,-0.06 -0.71,-0.18 -0.08,-0.12 0.02,-0.44 0.1,-0.61 l 5.13,-11.154 c 0.08,-0.174 0.29,-0.389 0.46,-0.476 0.17,-0.087 0.46,-0.158 0.65,-0.159 l 23.94,-0.012 c 0.2,-0.001 0.4,-0.086 0.45,-0.189 0.05,-0.104 0.03,-0.332 -0.05,-0.507 l -16.2,-35.453 c -0.08,-0.176 -0.2,-0.327 -0.27,-0.336 -0.06,-0.009 -0.18,0.127 -0.27,0.301 l -22.1,48.245 c -0.08,0.17 -0.27,0.39 -0.42,0.47 -0.15,0.09 -0.43,0.16 -0.62,0.16 h -13.05 c -0.19,0 -0.39,-0.08 -0.44,-0.19 -0.06,-0.11 -0.03,-0.34 0.05,-0.52 l 36.03,-78.558 c 0.08,-0.175 0.31,-0.323 0.5,-0.329 l 0.5,-0.017"/>
        <path d="m 1425.74,1010.05 c 0.55,2.72 3.09,4.73 6.59,4.7 9.57,-0.07 19.28,-4.69 27.1,-4.7 0.86,0 2.64,-0.11 3.74,0.42 0.8,0.38 1.32,0.62 1.94,1.6 0.39,0.63 0.54,1.42 1.06,2.08 0.67,0.86 1.62,1.24 2.66,1.71 0.52,0.23 1.14,0.54 1.53,0.94 0.37,0.39 0.46,0.59 0.71,1.14 0.23,0.51 0.41,1.56 0.77,2.08 0.34,0.5 1.12,1.12 1.59,1.37 0.57,0.31 1.25,0.88 1.83,1.57 0.59,0.7 0.94,1.79 1.22,3.18 0.01,0.03 -0.04,0.21 -0.2,0.12 -0.01,-0.01 -0.02,-0.01 -0.03,-0.02 -0.35,-0.19 -6.65,-4.35 -18.59,-4.18 -7.32,0.11 -22.69,3.82 -29.12,3.86 -5.18,0.04 -11.82,-1.53 -15.51,-7.69 -1.71,-2.84 -2,-6.93 -2.05,-8.08 -0.01,-0.2 0.08,-0.31 0.25,-0.31 1.82,0 12.48,-0.01 14.23,-0.01 0.16,0 0.27,0.14 0.28,0.22"/>
        <path d="m 1478,950.567 c -0.04,0.194 0.08,0.43 0.25,0.523 l 4.97,2.658 c 0.18,0.093 0.27,0.323 0.2,0.51 l -1.08,3.041 c -0.06,0.187 -0.28,0.311 -0.47,0.276 l -5.61,-1.019 c -0.19,-0.035 -0.43,0.079 -0.52,0.254 l -1.83,3.152 c -0.11,0.167 -0.09,0.425 0.04,0.574 l 3.8,4.234 c 0.13,0.147 0.14,0.393 0.01,0.546 l -2.05,2.489 c -0.13,0.153 -0.37,0.196 -0.54,0.096 l -1.45,-0.843 c -0.17,-0.1 -0.38,-0.33 -0.46,-0.51 L 1467,952.946 c -0.09,-0.181 -0.13,-0.376 -0.1,-0.435 0,0 0,0 0.03,-0.053 1.22,-2.434 1.97,-5.157 2.07,-8.06 0.33,-9.657 -6.37,-17.915 -15.5,-19.868 -0.06,-0.012 -0.06,-0.012 -0.06,-0.012 -0.06,-0.014 -0.18,-0.171 -0.27,-0.351 l -1.78,-3.779 c -0.09,-0.18 -0.32,-0.326 -0.52,-0.326 h -3.21 c -0.2,0 -0.43,0.146 -0.52,0.325 l -1.83,3.838 c -0.08,0.179 -0.22,0.341 -0.3,0.359 0,0 0,0 -0.08,0.018 -8.44,1.953 -14.86,9.354 -15.18,18.425 -0.12,3.335 0.61,6.498 1.99,9.296 0.03,0.053 0.03,0.053 0.03,0.053 0.12,0.146 0.15,0.412 0.07,0.592 l -6.58,13.921 c -0.09,0.179 -0.29,0.411 -0.46,0.516 l -1.23,0.763 c -0.17,0.105 -0.41,0.067 -0.54,-0.084 l -2.09,-2.455 c -0.13,-0.151 -0.13,-0.398 -0.01,-0.549 l 3.86,-4.552 c 0.13,-0.152 0.15,-0.412 0.04,-0.579 l -1.76,-3.005 c -0.1,-0.175 -0.33,-0.284 -0.53,-0.243 l -5.78,1.216 c -0.19,0.041 -0.41,-0.078 -0.48,-0.263 l -1.13,-3.024 c -0.07,-0.185 0.02,-0.418 0.19,-0.516 l 5.18,-2.955 c 0.17,-0.099 0.28,-0.338 0.24,-0.532 l -0.6,-3.423 c -0.03,-0.198 -0.21,-0.381 -0.41,-0.409 l -5.88,-0.84 c -0.2,-0.027 -0.36,-0.212 -0.36,-0.411 l -0.03,-3.226 c 0,-0.199 0.16,-0.389 0.36,-0.422 l 5.89,-1.008 c 0.2,-0.033 0.38,-0.222 0.4,-0.419 l 0.56,-3.439 c 0.04,-0.196 -0.07,-0.431 -0.25,-0.525 l -5.2,-2.778 c -0.17,-0.094 -0.26,-0.323 -0.19,-0.51 l 1.08,-3.041 c 0.06,-0.187 0.28,-0.311 0.47,-0.275 l 5.83,1.059 c 0.2,0.036 0.44,-0.079 0.53,-0.255 l 1.74,-3.035 c 0.11,-0.168 0.09,-0.425 -0.04,-0.573 l -3.94,-4.392 c -0.13,-0.147 -0.14,-0.393 -0.01,-0.546 l 2.05,-2.489 c 0.13,-0.153 0.37,-0.196 0.54,-0.096 l 5.11,2.983 c 0.17,0.101 0.43,0.072 0.58,-0.061 l 2.67,-2.288 c 0.16,-0.123 0.23,-0.375 0.15,-0.558 l -2.18,-5.429 c -0.07,-0.184 0.01,-0.418 0.18,-0.518 l 2.78,-1.636 c 0.17,-0.101 0.41,-0.058 0.54,0.095 l 3.75,4.512 c 0.12,0.153 0.38,0.214 0.56,0.138 l 3.33,-1.251 c 0.19,-0.064 0.34,-0.277 0.33,-0.476 l -0.19,-5.789 c -0.01,-0.198 0.15,-0.39 0.34,-0.425 l 3.17,-0.586 c 0.2,-0.037 0.41,0.087 0.48,0.273 l 1.96,5.465 c 0.06,0.186 0.28,0.33 0.48,0.318 0,0 1.9,-0.113 3.06,-0.073 0.3,0.011 0.53,0.036 0.53,0.036 0.19,0.023 0.41,-0.114 0.47,-0.303 l 1.79,-5.475 c 0.06,-0.189 0.27,-0.317 0.47,-0.283 l 3.18,0.535 c 0.2,0.032 0.36,0.221 0.35,0.42 l -0.03,5.765 c 0,0.199 0.16,0.409 0.35,0.468 l 3.41,1.205 c 0.18,0.073 0.44,0.005 0.56,-0.151 l 3.51,-4.483 c 0.13,-0.156 0.37,-0.204 0.54,-0.106 l 2.81,1.591 c 0.17,0.098 0.26,0.331 0.19,0.516 l -1.98,5.356 c -0.07,0.186 0,0.438 0.16,0.56 l 2.79,2.336 c 0.15,0.133 0.41,0.157 0.58,0.052 l 4.82,-3 c 0.17,-0.105 0.41,-0.067 0.54,0.083 l 2.09,2.456 c 0.13,0.151 0.13,0.398 0,0.549 l -3.69,4.351 c -0.12,0.151 -0.14,0.411 -0.03,0.578 l 1.86,3.151 c 0.1,0.174 0.33,0.282 0.53,0.242 l 5.51,-1.159 c 0.19,-0.041 0.41,0.077 0.48,0.264 l 1.12,3.023 c 0.07,0.186 -0.01,0.418 -0.18,0.517 l -4.93,2.808 c -0.17,0.099 -0.28,0.338 -0.24,0.533 l 0.64,3.61 c 0.02,0.196 0.21,0.38 0.4,0.408 l 5.6,0.798 c 0.19,0.028 0.36,0.214 0.36,0.412 l 0.02,3.227 c 0.01,0.198 -0.15,0.387 -0.35,0.422 l -5.62,0.959 c -0.19,0.035 -0.37,0.223 -0.4,0.419 l -0.61,3.609"/>
    </g>
</svg>