<svg xmlns="http://www.w3.org/2000/svg" width="24" height="24" viewBox="0 0 24 24">
    <defs>
        <linearGradient id="b" x1="0" y1="1" x2="1" y2="0">
            <stop offset="0" stop-color="#0f0f0f"/>
            <stop offset=".6" stop-color="#191919"/>
            <stop offset="1" stop-color="#232323"/>
        </linearGradient>
    </defs>
    <rect width="24" height="24" rx="10" fill="url(#b)"/>
    <path d="M7.01 13.9H3.94c-.22 0-.41-.13-.49-.33a.53.53 0 0 1 .11-.58l2.13-2.13H4.17c-.42 0-.76-.34-.76-.76H6.24c.22 0 .41.13.49.33.05.1.08.2.08.31a.53.53 0 0 1-.2.27l-2.13 2.13h1.76c.42 0 .76.34.76.76zm13.58-2.37c0-.82-.66-1.48-1.48-1.48-.44 0-.83.19-1.1.49-.27-.3-.66-.49-1.1-.49-.82 0-1.48.66-1.48 1.48v2.37c.42 0 .76-.34.76-.76v-1.61c0-.4.32-.72.72-.72.4 0 .72.32.72.72v1.61c0 .42.34.76.76.76v-2.37c0-.4.32-.72.72-.72.4 0 .72.32.72.72v1.61c0 .42.34.76.76.76zm-5.54.47c0 1.08-.87 1.95-1.95 1.95-1.08 0-1.95-.87-1.95-1.95 0-1.08.87-1.95 1.95-1.95 1.08 0 1.95.87 1.95 1.95zm-.76 0c0-.66-.54-1.19-1.19-1.19-.66 0-1.19.53-1.19 1.19 0 .66.53 1.19 1.19 1.19.66 0 1.19-.53 1.19-1.19zm-3.45 0c0 1.08-.87 1.95-1.95 1.95-1.08 0-1.95-.87-1.95-1.95 0-1.08.87-1.95 1.95-1.95 1.08 0 1.95.87 1.95 1.95zm-.76 0c0-.66-.54-1.19-1.19-1.19-.66 0-1.19.53-1.19 1.19 0 .66.54 1.19 1.19 1.19.66 0 1.19-.53 1.19-1.19z"
          fill="#fff"/>
</svg>