<svg xmlns="http://www.w3.org/2000/svg" width="16" height="16" viewBox="0 0 16 16">
    <path d="m 3.722497,9.3210565 c 0,0.2291787 -0.183344,0.4190707 -0.415798,0.4190707 -0.114589,0 -0.219357,-0.045839 -0.294659,-0.1211381 -0.0753,-0.075299 -0.121138,-0.1800693 -0.121138,-0.2946586 0,-0.2291796 0.183344,-0.4190716 0.415797,-0.4190716 0.225906,0 0.415798,0.1866181 0.415798,0.4157976 z m 0.278289,2.0789845 c -0.1637,0.1637 -0.160426,0.425619 0,0.589318 v 0 c 0.163699,0.160427 0.428893,0.160427 0.589319,-0.0033 C 4.753804,11.82236 4.75053,11.557167 4.586805,11.396741 4.42638,11.236315 4.161219,11.236315 4.00076,11.400041 Z M 6.662575,6.3679151 c 0.229179,0 0.41907,-0.1866176 0.41907,-0.419071 0,-0.2324535 -0.186617,-0.4190711 -0.41907,-0.4190711 -0.232454,0 -0.419072,0.1866176 -0.419072,0.4190711 0,0.1145896 0.04584,0.2193574 0.121138,0.2946592 0.07858,0.078576 0.183343,0.1244118 0.297934,0.1244118 z M 3.984416,7.242071 c 0.163699,0.1604256 0.428892,0.1604256 0.589319,-0.00327 l 0.0033,-0.00327 c 0.0033,-0.00327 0.0033,-0.00327 0.0065,-0.00655 0.163699,-0.1636996 0.163699,-0.425619 0,-0.5893186 -0.1637,-0.1636996 -0.428894,-0.1636996 -0.589319,0 -0.0033,0.00327 -0.0033,0.00327 -0.0065,0.00655 -0.0033,0.00327 -0.0033,0.00327 -0.0065,0.00655 C 3.82079,6.813188 3.82079,7.0783814 3.984516,7.242081 Z m 2.68798,5.012482 c -0.232453,0 -0.415796,0.186618 -0.415796,0.419071 0,0.11459 0.04584,0.219358 0.121137,0.29466 0.0753,0.0753 0.180069,0.121137 0.297933,0.121137 0.22918,0 0.415797,-0.186617 0.415797,-0.419071 0,-0.229179 -0.18665,-0.415797 -0.419071,-0.415797 z m 2.078953,-0.867608 c -0.1637,0.1637 -0.1637,0.428893 0,0.589319 0.1637,0.163699 0.428893,0.163699 0.589318,0 0.1637,-0.1637 0.160426,-0.428893 0,-0.592593 -0.163699,-0.160425 -0.42886,-0.160425 -0.589318,0.0033 z m 1.273616,-2.4980559 c -0.232454,0 -0.419072,0.1866172 -0.419072,0.4190707 0,0.1145902 0.04584,0.2193577 0.121138,0.2946595 0.0753,0.075299 0.18007,0.1244121 0.294659,0.1211382 0.232454,0 0.415798,-0.1866182 0.419072,-0.4190716 0.0033,-0.2291796 -0.183377,-0.4157968 -0.415797,-0.4157968 z M 6.682218,16 C 2.998977,16 0,13.001023 0,9.3177825 0,5.8997341 2.58318,3.0742788 5.899734,2.6846737 V 1.6730101 H 5.483937 c -0.209535,0 -0.376509,-0.1702476 -0.376509,-0.3765091 V 0.37650912 C 5.107428,0.1669736 5.277675,0 5.483937,0 h 2.396562 c 0.209536,0 0.37651,0.1702476 0.37651,0.37650912 V 1.296501 c 0,0.2095355 -0.170248,0.3765091 -0.37651,0.3765091 H 7.464703 v 1.0083896 c 1.260487,0.1473297 2.412932,0.6482504 3.359116,1.3979947 l 0.543483,-0.5434827 -0.04911,-0.04911 c -0.147329,-0.1473296 -0.147329,-0.3863311 0,-0.5336607 l 0.74647,-0.7464702 c 0.14733,-0.1473297 0.386331,-0.1473297 0.533661,0 l 1.208104,1.2081031 c 0.147329,0.1473297 0.147329,0.3863311 0,0.5336608 l -0.746471,0.7464702 c -0.14733,0.1473297 -0.386331,0.1473297 -0.533661,0 l -0.04911,-0.04911 -0.543483,0.5434827 c 0.897074,1.1360753 1.430735,2.570084 1.430735,4.1252297 0,3.6865147 -2.998977,6.6854917 -6.682219,6.6854927 z m 5.130314,-6.6822175 c 0,-2.8287298 -2.301617,-5.1303463 -5.130347,-5.1303463 -2.828729,0 -5.130345,2.3016165 -5.130345,5.1303463 0,2.8287285 2.298342,5.1303455 5.130345,5.1303455 2.828763,0 5.130347,-2.301617 5.130347,-5.1303455 z M 9.366892,6.6069165 C 9.52077,6.7607941 9.530591,7.0096176 9.389812,7.1733171 L 7.687335,9.1671788 c 0.04256,0.3110293 -0.05239,0.6351545 -0.291385,0.8741562 -0.402701,0.402701 -1.0575,0.402701 -1.463475,0 -0.402701,-0.4027013 -0.402701,-1.0575003 0,-1.4634751 C 6.171476,8.3388585 6.495602,8.2439126 6.806631,8.2864746 L 8.800492,6.5839985 c 0.166941,-0.1407817 0.412491,-0.1309596 0.5664,0.022918 z M 6.960508,9.0165751 c -0.1637,-0.1636995 -0.428893,-0.1636995 -0.589319,0 -0.1637,0.1636996 -0.1637,0.4288926 0,0.5893182 0.1637,0.1636995 0.428893,0.1636995 0.589319,0 0.1637,-0.1636995 0.1637,-0.4256186 0,-0.5893182 z"
          fill="rgb(249, 249, 250, .6)"/>
</svg>
